<svg width="26" height="26" viewBox="0 0 26 26" fill="none" xmlns="http://www.w3.org/2000/svg">
<path d="M21.1507 3.39954H17.9863V1.83704H16.4041V3.39954H10.0754V1.83704H8.49317V3.39954H5.32878C4.45857 3.39954 3.74658 4.10266 3.74658 4.96204V20.587C3.74658 21.4464 4.45857 22.1495 5.32878 22.1495H21.1507C22.0209 22.1495 22.7329 21.4464 22.7329 20.587V4.96204C22.7329 4.10266 22.0209 3.39954 21.1507 3.39954ZM21.1507 20.587H5.32878V9.64954H21.1507V20.587ZM21.1507 8.08704H5.32878V4.96204H8.49317V6.52454H10.0754V4.96204H16.4041V6.52454H17.9863V4.96204H21.1507V8.08704Z" fill="#6C5CE7"/>
</svg>
