<svg width="39" height="42" viewBox="0 0 39 42" fill="none" xmlns="http://www.w3.org/2000/svg">
<path d="M2.52734 6.021H9.04152V20.9266H2.52734V6.021Z" fill="url(#paint0_linear)"/>
<path d="M2.52734 7.39161L9.0416 13.5382V6.021H2.52734V7.39161Z" fill="url(#paint1_linear)"/>
<path d="M9.13439 7.32711H2.4339C1.96812 7.32711 1.59058 6.94956 1.59058 6.48379V5.3028C1.59058 4.83702 1.96812 4.45947 2.4339 4.45947H9.13439C9.60017 4.45947 9.97771 4.83702 9.97771 5.3028V6.48379C9.97763 6.94956 9.60009 7.32711 9.13439 7.32711Z" fill="url(#paint2_linear)"/>
<path d="M33.5513 41.9H5.21448C3.73045 41.9 2.52734 40.7649 2.52734 39.3646V22.5401L17.0897 2.42707C18.22 0.865945 20.5459 0.865945 21.6762 2.42707L36.2385 22.5401V39.3646C36.2385 40.7649 35.0354 41.9 33.5513 41.9Z" fill="url(#paint3_linear)"/>
<path d="M17.0897 2.42707L2.52734 22.5401V24.7824L20.6687 41.9H33.5513C35.0354 41.9 36.2385 40.7649 36.2385 39.3646V22.5401L21.6761 2.42707C20.5458 0.865945 18.22 0.865945 17.0897 2.42707Z" fill="url(#paint4_linear)"/>
<path d="M36.2384 39.3647V26.1621L26.4074 16.3311C25.9961 15.9198 25.3291 15.9198 24.9178 16.3311L24.0482 17.2008C23.7526 17.4964 23.6707 17.9237 23.8 18.2936L23.3277 18.7658C22.5773 19.5163 19.8692 20.7659 19.8692 20.7659L18.4593 20.3588C18.329 20.3212 18.2002 20.2793 18.073 20.2334L14.1707 16.331C13.7594 15.9198 13.0924 15.9198 12.6811 16.331L5.66955 23.3426C5.25826 23.7539 5.25826 24.4209 5.66955 24.8322L9.3977 28.5603C9.48287 28.7682 9.5577 28.9807 9.62034 29.1977L9.9371 30.2946C10.0805 30.791 10.2844 31.2655 10.542 31.7087L10.4426 31.8082C9.98957 32.2612 9.98957 32.9958 10.4426 33.4489L18.9167 41.9001H33.5513C35.0353 41.9001 36.2384 40.765 36.2384 39.3647Z" fill="url(#paint5_linear)"/>
<path d="M2.52734 33.8345V39.3645C2.52734 40.7648 3.73037 41.8999 5.21448 41.8999H33.5513C35.0354 41.8999 36.2385 40.7648 36.2385 39.3645V33.8345H2.52734Z" fill="url(#paint6_linear)"/>
<path d="M20.4499 8.96813L31.0973 24.1902C31.3331 24.5273 31.7326 24.7302 32.1607 24.7302H37.1689C38.1839 24.7302 38.7913 23.6651 38.2323 22.8658L24.6791 3.48947C22.1063 -0.188712 16.6596 -0.188712 14.0869 3.48947L0.533658 22.8658C-0.025436 23.6651 0.582092 24.7302 1.59703 24.7302H6.60531C7.03339 24.7302 7.43281 24.5273 7.66869 24.1902L18.3161 8.96813C18.8343 8.22716 19.9315 8.22716 20.4499 8.96813Z" fill="url(#paint7_linear)"/>
<path d="M7.66848 24.1903L18.3159 8.96818C18.8211 8.24578 19.9444 8.24578 20.4497 8.96818L31.0971 24.1903C31.3329 24.5274 31.7324 24.7303 32.1605 24.7303H36.0698L22.3589 5.12846C20.9495 3.11343 17.8161 3.11343 16.4067 5.12846L2.6958 24.7303H6.6051C7.03326 24.7303 7.43268 24.5274 7.66848 24.1903Z" fill="url(#paint8_linear)"/>
<path d="M31.0974 24.1902C31.3332 24.5273 31.7327 24.7302 32.1608 24.7302H34.8068L33.0056 22.929L31.0974 24.1902Z" fill="url(#paint9_linear)"/>
<path d="M12.6816 16.331L5.67002 23.3427C5.29102 23.7217 5.26221 24.3171 5.58155 24.7302H6.60553C7.03361 24.7302 7.43311 24.5274 7.66891 24.1903L13.3804 16.0248C13.1264 16.0358 12.8755 16.1371 12.6816 16.331Z" fill="url(#paint10_linear)"/>
<path d="M31.5325 25.7053L30.9001 26.3377C30.1495 27.0883 29.6017 28.0165 29.3069 29.0364L28.9902 30.1329C28.6963 31.1529 28.1476 32.081 27.3978 32.8317L26.3441 33.8845L15.6199 23.1602L17.8173 20.9627L20.4679 20.1975C21.4879 19.9027 22.416 19.3549 23.1668 18.6042L23.7991 17.9718C24.4034 17.3676 25.3833 17.3676 25.9884 17.9718L31.5325 23.516C32.1366 24.1211 32.1366 25.1011 31.5325 25.7053Z" fill="url(#paint11_linear)"/>
<path d="M29.4162 28.6959C29.7275 27.8102 30.2337 27.0038 30.8997 26.3378L31.5324 25.7051C32.1368 25.1007 32.1368 24.1208 31.5324 23.5164L25.9878 17.9717C25.3834 17.3673 24.4035 17.3673 23.7991 17.9717L23.1664 18.6044C22.5004 19.2704 21.6941 19.7765 20.8083 20.088L29.4162 28.6959Z" fill="url(#paint12_linear)"/>
<path d="M30.5838 33.0787C29.8973 33.7995 28.7158 33.7923 27.9986 33.1021C27.6003 32.786 27.0159 33.0032 26.9078 33.5001C26.8369 33.8258 26.6748 34.1355 26.422 34.3882L26.3846 34.4257C25.8781 34.9321 25.1431 35.0745 24.5082 34.8486C24.1569 34.7236 23.7737 34.9061 23.642 35.255C23.4991 35.6332 23.2806 36.0706 22.962 36.3893L22.9161 36.4352C22.4404 36.9109 21.7628 37.0655 21.1559 36.8951C20.7782 36.789 20.3824 37.013 20.2986 37.3964C20.2063 37.8194 20.0357 38.2952 19.7207 38.6103L19.7061 38.6249C19.0035 39.3275 17.8643 39.3275 17.1617 38.6249L11.3691 32.8323C10.6187 32.0819 10.0707 31.1535 9.7762 30.1338L9.45944 29.037C9.16504 28.0173 8.61701 27.0889 7.86652 26.3385L7.2338 25.7058C6.62942 25.1014 6.62942 24.1215 7.2338 23.5171L12.7785 17.9725C13.3829 17.3681 14.3628 17.3681 14.9672 17.9725L15.5999 18.6052C16.3503 19.3556 17.2787 19.9036 18.2983 20.1981L20.9496 20.9637L30.5525 30.5666C31.2446 31.2583 31.255 32.3739 30.5838 33.0787Z" fill="url(#paint13_linear)"/>
<path d="M30.5527 30.5664L26.0199 26.0336V27.8021C26.0199 28.5083 25.4472 29.081 24.7403 29.0817C24.3872 29.0817 24.0669 29.2239 23.8356 29.4552C23.6036 29.6872 23.4614 30.0075 23.4614 30.3606C23.4606 30.7144 23.3177 31.034 23.0864 31.2653C22.8544 31.4973 22.5348 31.6402 22.1817 31.6402C21.8286 31.6402 21.5083 31.7825 21.2763 32.0145C21.0443 32.2465 20.9021 32.5668 20.9021 32.9199C20.9021 33.273 20.7591 33.5926 20.5271 33.8246C20.2959 34.0558 19.9763 34.1988 19.6225 34.1995C19.2694 34.1995 18.9491 34.3418 18.7171 34.5738C18.4858 34.805 18.3435 35.1253 18.3435 35.4784C18.3435 35.8315 18.1999 36.1518 17.9686 36.3831C17.7366 36.6151 17.4171 36.7581 17.0639 36.7581H15.2954L17.1617 38.6243C17.8644 39.327 19.0037 39.327 19.7064 38.6243L19.721 38.6097C20.036 38.2947 20.2065 37.8189 20.2988 37.3959C20.3824 37.0125 20.7783 36.7884 21.1561 36.8946C21.7629 37.065 22.4401 36.9106 22.9158 36.4348L22.9618 36.3889C23.2805 36.0702 23.499 35.6327 23.6419 35.2545C23.7737 34.9056 24.1568 34.7231 24.5081 34.8481C25.1431 35.0738 25.8781 34.9318 26.3849 34.4249L26.4221 34.3877C26.6747 34.135 26.8368 33.8254 26.9076 33.4996C27.0157 33.0027 27.6002 32.7853 27.9987 33.1014C28.7159 33.7924 29.897 33.7989 30.5843 33.0781C31.2553 32.3735 31.2444 31.2579 30.5527 30.5664Z" fill="url(#paint14_linear)"/>
<path d="M9.34982 28.6959C9.03846 27.8102 8.53233 27.0038 7.86627 26.3378L7.23356 25.7051C6.62918 25.1007 6.62918 24.1208 7.23356 23.5164L12.7782 17.9717C13.3826 17.3673 14.3625 17.3673 14.9669 17.9717L15.5996 18.6044C16.2656 19.2704 17.072 19.7765 17.9577 20.088L9.34982 28.6959Z" fill="url(#paint15_linear)"/>
<path d="M18.2981 20.1974C17.2784 19.903 16.35 19.3549 15.5996 18.6044L14.9669 17.9717C14.3625 17.3673 13.3826 17.3673 12.7782 17.9717L7.23356 23.5164C6.62918 24.1208 6.62918 25.1007 7.23356 25.7051L7.86627 26.3378C8.61668 27.0882 9.16472 28.0166 9.4592 29.0362L9.72074 29.9419L19.2038 20.4588L18.2981 20.1974Z" fill="url(#paint16_linear)"/>
<path d="M14.8789 18.5288L7.86733 25.5404C7.45604 25.9517 6.7891 25.9517 6.37781 25.5404L5.50817 24.6708C5.09688 24.2595 5.09688 23.5926 5.50817 23.1813L12.5198 16.1697C12.9311 15.7584 13.598 15.7584 14.0093 16.1697L14.8789 17.0393C15.2902 17.4506 15.2902 18.1175 14.8789 18.5288Z" fill="url(#paint17_linear)"/>
<path d="M26.4218 34.3878C26.6746 34.1351 26.8367 33.8254 26.9076 33.4997C27.0156 33.0029 27.6001 32.7856 27.9984 33.1017C28.7156 33.7919 29.8971 33.7992 30.5836 33.0784C31.2548 32.3736 31.2444 31.258 30.5523 30.566L21.0832 21.0968L17.5018 24.6783L16.1672 27.408L23.7844 35.0252C23.9643 34.8334 24.245 34.7546 24.508 34.8482C25.1429 35.0741 25.8779 34.9318 26.3845 34.4253L26.4218 34.3878Z" fill="url(#paint18_linear)"/>
<path d="M23.7987 17.972L23.1663 18.6044C22.4156 19.355 21.4875 19.9028 20.4674 20.1976L17.3974 21.1191C16.4581 21.4624 15.8333 22.3561 15.8333 23.3562V26.7313C15.8333 27.214 16.2245 27.6052 16.7072 27.6052C18.1592 27.6052 19.3364 26.4281 19.3364 24.976V24.0375C19.3364 24.0167 19.3372 23.996 19.3389 23.9757C19.3767 23.51 19.8572 23.2117 20.304 23.3483L20.5151 23.4128C22.9839 24.1674 25.651 23.1625 27.008 20.9665L27.2071 20.6443L23.9923 17.8081C23.9242 17.8564 23.8596 17.9109 23.7987 17.972Z" fill="url(#paint19_linear)"/>
<path d="M20.4676 20.1974C21.4872 19.903 22.4156 19.3549 23.166 18.6044L23.7987 17.9717C24.4031 17.3673 25.383 17.3673 25.9874 17.9717L31.5321 23.5164C32.1365 24.1208 32.1365 25.1007 31.5321 25.7051L30.8994 26.3378C30.149 27.0882 29.6009 28.0166 29.3064 29.0362L29.0449 29.9419L19.562 20.4589L20.4676 20.1974Z" fill="url(#paint20_linear)"/>
<path d="M23.8871 18.5288L30.8987 25.5404C31.31 25.9517 31.9769 25.9517 32.3882 25.5404L33.2578 24.6708C33.6691 24.2595 33.6691 23.5926 33.2578 23.1813L26.2462 16.1697C25.8349 15.7584 25.168 15.7584 24.7567 16.1697L23.8871 17.0393C23.4758 17.4506 23.4758 18.1175 23.8871 18.5288Z" fill="url(#paint21_linear)"/>
<path d="M10.5707 33.5769L10.2812 33.2873C9.82815 32.8343 9.82815 32.0997 10.2812 31.6466L11.5037 30.4241C11.9568 29.9711 12.6913 29.9711 13.1444 30.4241L13.4339 30.7137C13.887 31.1668 13.887 31.9013 13.4339 32.3544L12.2114 33.5769C11.7583 34.03 11.0238 34.03 10.5707 33.5769Z" fill="url(#paint22_linear)"/>
<path d="M12.501 35.507L12.2114 35.2175C11.7583 34.7644 11.7583 34.0299 12.2114 33.5768L13.4339 32.3543C13.8869 31.9013 14.6215 31.9013 15.0746 32.3543L15.3642 32.6438C15.8173 33.0969 15.8173 33.8315 15.3642 34.2846L14.1417 35.507C13.6886 35.9601 12.9541 35.9601 12.501 35.507Z" fill="url(#paint23_linear)"/>
<path d="M14.4311 37.4373L14.1415 37.1477C13.6885 36.6947 13.6885 35.9601 14.1415 35.507L15.364 34.2845C15.8171 33.8314 16.5516 33.8314 17.0047 34.2845L17.2943 34.5741C17.7474 35.0271 17.7474 35.7617 17.2943 36.2148L16.0718 37.4373C15.6187 37.8903 14.8841 37.8903 14.4311 37.4373Z" fill="url(#paint24_linear)"/>
<path d="M16.3613 39.3675L16.0718 39.078C15.6187 38.6249 15.6187 37.8904 16.0718 37.4373L17.2942 36.2148C17.7473 35.7617 18.4819 35.7617 18.935 36.2148L19.2245 36.5043C19.6776 36.9573 19.6776 37.6919 19.2245 38.145L18.002 39.3675C17.5489 39.8206 16.8144 39.8206 16.3613 39.3675Z" fill="url(#paint25_linear)"/>
<defs>
<linearGradient id="paint0_linear" x1="1.75909" y1="8.15211" x2="6.35673" y2="14.2303" gradientUnits="userSpaceOnUse">
<stop stop-color="#F1EEF6"/>
<stop offset="1" stop-color="#CFCBE8"/>
</linearGradient>
<linearGradient id="paint1_linear" x1="5.78447" y1="11.4185" x2="5.78447" y2="5.87182" gradientUnits="userSpaceOnUse">
<stop stop-color="#CDCBE8" stop-opacity="0"/>
<stop offset="1" stop-color="#8D7CB1"/>
</linearGradient>
<linearGradient id="paint2_linear" x1="4.88936" y1="3.65643" x2="6.95008" y2="8.80823" gradientUnits="userSpaceOnUse">
<stop stop-color="#6D60FF"/>
<stop offset="1" stop-color="#3002B4"/>
</linearGradient>
<linearGradient id="paint3_linear" x1="11.1501" y1="20.422" x2="34.6172" y2="43.8891" gradientUnits="userSpaceOnUse">
<stop stop-color="#EEEEF6"/>
<stop offset="1" stop-color="#D3CBE8"/>
</linearGradient>
<linearGradient id="paint4_linear" x1="25.9858" y1="36.9324" x2="10.8508" y2="6.5125" gradientUnits="userSpaceOnUse">
<stop stop-color="#D1CBE8" stop-opacity="0"/>
<stop offset="1" stop-color="#837CB1"/>
</linearGradient>
<linearGradient id="paint5_linear" x1="35.7908" y1="42.2558" x2="23.6059" y2="30.0709" gradientUnits="userSpaceOnUse">
<stop stop-color="#CDCBE8" stop-opacity="0"/>
<stop offset="0.1943" stop-color="#C1B5D9" stop-opacity="0.194"/>
<stop offset="0.5245" stop-color="#9F96C3" stop-opacity="0.525"/>
<stop offset="0.8049" stop-color="#9083B6" stop-opacity="0.805"/>
<stop offset="1" stop-color="#7D7CB1"/>
</linearGradient>
<linearGradient id="paint6_linear" x1="19.3829" y1="37.8298" x2="19.3829" y2="42.6089" gradientUnits="userSpaceOnUse">
<stop stop-color="#CFCBE8" stop-opacity="0"/>
<stop offset="1" stop-color="#7C81B1"/>
</linearGradient>
<linearGradient id="paint7_linear" x1="8.97278" y1="10.1482" x2="24.8668" y2="26.0422" gradientUnits="userSpaceOnUse">
<stop stop-color="#6070FF"/>
<stop offset="1" stop-color="#1002B4"/>
</linearGradient>
<linearGradient id="paint8_linear" x1="19.3828" y1="28.7639" x2="19.3828" y2="0.603238" gradientUnits="userSpaceOnUse">
<stop stop-color="#8060FF"/>
<stop offset="1" stop-color="#1002B4"/>
</linearGradient>
<linearGradient id="paint9_linear" x1="35.1635" y1="26.6846" x2="32.3279" y2="23.8491" gradientUnits="userSpaceOnUse">
<stop stop-color="#0268B4" stop-opacity="0"/>
<stop offset="1" stop-color="#0268B4"/>
</linearGradient>
<linearGradient id="paint10_linear" x1="9.37121" y1="26.3934" x2="9.37121" y2="14.782" gradientUnits="userSpaceOnUse">
<stop stop-color="#0268B4" stop-opacity="0"/>
<stop offset="1" stop-color="#0268B4"/>
</linearGradient>
<linearGradient id="paint11_linear" x1="18.1812" y1="19.7499" x2="26.1885" y2="25.9374" gradientUnits="userSpaceOnUse">
<stop stop-color="#FFDCBD"/>
<stop offset="1" stop-color="#FFA9B1"/>
</linearGradient>
<linearGradient id="paint12_linear" x1="26.6725" y1="22.8121" x2="28.2408" y2="21.2437" gradientUnits="userSpaceOnUse">
<stop stop-color="#FFA9B1" stop-opacity="0"/>
<stop offset="1" stop-color="#F89580"/>
</linearGradient>
<linearGradient id="paint13_linear" x1="29.2722" y1="28.3256" x2="11.446" y2="28.3256" gradientUnits="userSpaceOnUse">
<stop stop-color="#FFDCBD"/>
<stop offset="1" stop-color="#FFA9B1"/>
</linearGradient>
<linearGradient id="paint14_linear" x1="23.0053" y1="33.3626" x2="17.4805" y2="29.2617" gradientUnits="userSpaceOnUse">
<stop stop-color="#FFA9B1" stop-opacity="0"/>
<stop offset="1" stop-color="#F89580"/>
</linearGradient>
<linearGradient id="paint15_linear" x1="12.108" y1="22.8121" x2="10.5397" y2="21.2437" gradientUnits="userSpaceOnUse">
<stop stop-color="#FFA9B1" stop-opacity="0"/>
<stop offset="1" stop-color="#F89580"/>
</linearGradient>
<linearGradient id="paint16_linear" x1="14.2498" y1="24.9881" x2="11.3064" y2="22.0446" gradientUnits="userSpaceOnUse">
<stop stop-color="#FFA9B1" stop-opacity="0"/>
<stop offset="1" stop-color="#F89580"/>
</linearGradient>
<linearGradient id="paint17_linear" x1="9.13195" y1="19.7934" x2="11.0212" y2="21.6828" gradientUnits="userSpaceOnUse">
<stop stop-color="#C1E9AF"/>
<stop offset="1" stop-color="#4FC123"/>
</linearGradient>
<linearGradient id="paint18_linear" x1="23.2961" y1="28.9233" x2="17.7762" y2="23.4033" gradientUnits="userSpaceOnUse">
<stop stop-color="#FFA9B1" stop-opacity="0"/>
<stop offset="1" stop-color="#F89580"/>
</linearGradient>
<linearGradient id="paint19_linear" x1="17.5054" y1="20.624" x2="25.5127" y2="26.8114" gradientUnits="userSpaceOnUse">
<stop stop-color="#FFDCBD"/>
<stop offset="1" stop-color="#FFA9B1"/>
</linearGradient>
<linearGradient id="paint20_linear" x1="24.5158" y1="24.9881" x2="27.4593" y2="22.0446" gradientUnits="userSpaceOnUse">
<stop stop-color="#FFA9B1" stop-opacity="0"/>
<stop offset="1" stop-color="#F89580"/>
</linearGradient>
<linearGradient id="paint21_linear" x1="29.6341" y1="19.7935" x2="27.7448" y2="21.6828" gradientUnits="userSpaceOnUse">
<stop stop-color="#FE99A0"/>
<stop offset="1" stop-color="#FD4755"/>
</linearGradient>
<linearGradient id="paint22_linear" x1="10.6707" y1="30.8014" x2="13.6706" y2="33.8012" gradientUnits="userSpaceOnUse">
<stop stop-color="#FFDCBD"/>
<stop offset="1" stop-color="#FFA9B1"/>
</linearGradient>
<linearGradient id="paint23_linear" x1="12.6007" y1="32.7312" x2="15.6006" y2="35.7311" gradientUnits="userSpaceOnUse">
<stop stop-color="#FFDCBD"/>
<stop offset="1" stop-color="#FFA9B1"/>
</linearGradient>
<linearGradient id="paint24_linear" x1="14.5305" y1="34.6612" x2="17.5303" y2="37.661" gradientUnits="userSpaceOnUse">
<stop stop-color="#FFDCBD"/>
<stop offset="1" stop-color="#FFA9B1"/>
</linearGradient>
<linearGradient id="paint25_linear" x1="16.4604" y1="36.5911" x2="19.4603" y2="39.591" gradientUnits="userSpaceOnUse">
<stop stop-color="#FFDCBD"/>
<stop offset="1" stop-color="#FFA9B1"/>
</linearGradient>
</defs>
</svg>
