<svg width="29" height="41" viewBox="0 0 29 41" fill="none" xmlns="http://www.w3.org/2000/svg">
<path d="M25.8814 40.2114H2.88539C1.54129 40.2114 0.45166 39.1218 0.45166 37.7777V3.13514C0.45166 1.79104 1.54129 0.701416 2.88539 0.701416H25.8814C27.2255 0.701416 28.3151 1.79104 28.3151 3.13514V37.7777C28.3151 39.1218 27.2255 40.2114 25.8814 40.2114Z" fill="url(#paint0_linear)"/>
<path d="M24.9905 39.033H3.77661C2.52358 39.033 1.50781 38.0172 1.50781 36.7642V4.1488C1.50781 2.89577 2.52358 1.88 3.77661 1.88H24.9906C26.2436 1.88 27.2594 2.89577 27.2594 4.1488V36.7643C27.2593 38.0172 26.2435 39.033 24.9905 39.033Z" fill="url(#paint1_linear)"/>
<path d="M24.0468 7.55355H18.3641C18.1922 7.55355 17.6641 8.73298 17.1847 8.73298H11.5822C11.1027 8.73298 10.714 8.34427 10.714 7.86475C10.714 7.86475 10.5747 7.55347 10.4027 7.55347L4.72003 13.5498C3.56104 13.5498 2.62158 14.4893 2.62158 15.6483V35.7549C2.62158 36.9139 3.56112 37.8533 4.72003 37.8533H24.0468C25.2058 37.8533 26.1452 36.9138 26.1452 35.7549V15.4997C26.1452 14.3408 25.2057 7.55355 24.0468 7.55355Z" fill="url(#paint2_linear)"/>
<path d="M14.3834 4.2392H11.5826C11.1026 4.2392 10.7143 3.84999 10.7143 3.37089C10.7143 3.2844 10.6795 3.20724 10.6227 3.15042C10.5667 3.09446 10.4887 3.05969 10.4031 3.05969H4.72004C3.56088 3.05969 2.62134 3.99923 2.62134 5.15754V15.8757H14.3834V4.2392Z" fill="url(#paint3_linear)"/>
<path d="M26.1453 15.8757V5.15754C26.1453 3.99923 25.2058 3.05969 24.0466 3.05969H18.3645C18.1923 3.05969 18.0524 3.19876 18.0524 3.37089C18.0524 3.61002 17.9549 3.8271 17.798 3.98482C17.6412 4.14169 17.4241 4.2392 17.185 4.2392H14.3833V15.8757H26.1453Z" fill="url(#paint4_linear)"/>
<path d="M2.62134 15.8757H14.3834V28.6799H2.62134V15.8757Z" fill="url(#paint5_linear)"/>
<path d="M14.3833 15.8757H26.1453V28.6799H14.3833V15.8757Z" fill="url(#paint6_linear)"/>
<path d="M8.74275 9.87357C10.4599 9.87357 11.852 8.48153 11.852 6.76436C11.852 5.04719 10.4599 3.65515 8.74275 3.65515C7.02559 3.65515 5.63354 5.04719 5.63354 6.76436C5.63354 8.48153 7.02559 9.87357 8.74275 9.87357Z" fill="url(#paint7_linear)"/>
<path d="M14.3834 14.2349C14.3834 13.346 13.9947 12.4976 13.3105 11.9302C12.0707 10.902 10.4793 10.2834 8.74267 10.2834C6.61192 10.2834 4.69858 11.2136 3.3862 12.6899C2.89464 13.2428 2.62134 13.956 2.62134 14.6959V15.8757H14.3834V14.2349Z" fill="url(#paint8_linear)"/>
<path d="M20.5045 9.87357C22.2216 9.87357 23.6137 8.48153 23.6137 6.76436C23.6137 5.04719 22.2216 3.65515 20.5045 3.65515C18.7873 3.65515 17.3953 5.04719 17.3953 6.76436C17.3953 8.48153 18.7873 9.87357 20.5045 9.87357Z" fill="url(#paint9_linear)"/>
<path d="M26.1453 14.2349C26.1453 13.346 25.7566 12.4976 25.0724 11.9302C23.8326 10.902 22.2413 10.2834 20.5046 10.2834C18.3739 10.2834 16.4605 11.2136 15.1482 12.6899C14.6566 13.2428 14.3833 13.956 14.3833 14.6959V15.8757H26.1453V14.2349Z" fill="url(#paint10_linear)"/>
<path d="M8.74275 22.6779C10.4599 22.6779 11.852 21.2859 11.852 19.5687C11.852 17.8515 10.4599 16.4595 8.74275 16.4595C7.02559 16.4595 5.63354 17.8515 5.63354 19.5687C5.63354 21.2859 7.02559 22.6779 8.74275 22.6779Z" fill="url(#paint11_linear)"/>
<path d="M14.3834 27.0391C14.3834 26.1502 13.9947 25.3018 13.3105 24.7344C12.0707 23.7062 10.4793 23.0876 8.74267 23.0876C6.61192 23.0876 4.69858 24.0178 3.3862 25.4941C2.89464 26.047 2.62134 26.7602 2.62134 27.5001V28.6799H14.3834V27.0391Z" fill="url(#paint12_linear)"/>
<path d="M20.5045 22.6779C22.2216 22.6779 23.6137 21.2859 23.6137 19.5687C23.6137 17.8515 22.2216 16.4595 20.5045 16.4595C18.7873 16.4595 17.3953 17.8515 17.3953 19.5687C17.3953 21.2859 18.7873 22.6779 20.5045 22.6779Z" fill="url(#paint13_linear)"/>
<path d="M26.1453 27.0391C26.1453 26.1502 25.7566 25.3018 25.0724 24.7344C23.8326 23.7062 22.2413 23.0876 20.5046 23.0876C18.3739 23.0876 16.4605 24.0178 15.1482 25.4941C14.6566 26.047 14.3833 26.7602 14.3833 27.5001V28.6799H26.1453V27.0391Z" fill="url(#paint14_linear)"/>
<path d="M0.45166 33.8236V37.7776C0.45166 39.1217 1.54129 40.2114 2.88539 40.2114H25.8814C27.2255 40.2114 28.3151 39.1217 28.3151 37.7776V33.8236H0.45166Z" fill="url(#paint15_linear)"/>
<path d="M2.62158 28.6799V35.755C2.62158 36.914 3.56112 37.8535 4.72003 37.8535H24.0468C25.2057 37.8535 26.1452 36.914 26.1452 35.755V28.6799H2.62158Z" fill="url(#paint16_linear)"/>
<path d="M8.519 35.9533C9.89416 35.9533 11.0089 34.8385 11.0089 33.4633C11.0089 32.0882 9.89416 30.9734 8.519 30.9734C7.14384 30.9734 6.02905 32.0882 6.02905 33.4633C6.02905 34.8385 7.14384 35.9533 8.519 35.9533Z" fill="url(#paint17_linear)"/>
<path d="M20.248 35.9532C21.6232 35.9532 22.7379 34.8384 22.7379 33.4632C22.7379 32.0881 21.6232 30.9733 20.248 30.9733C18.8728 30.9733 17.7581 32.0881 17.7581 33.4632C17.7581 34.8384 18.8728 35.9532 20.248 35.9532Z" fill="url(#paint18_linear)"/>
<defs>
<linearGradient id="paint0_linear" x1="3.51194" y1="9.58497" x2="28.7387" y2="34.8117" gradientUnits="userSpaceOnUse">
<stop stop-color="#5D5383"/>
<stop offset="1" stop-color="#473E59"/>
</linearGradient>
<linearGradient id="paint1_linear" x1="27.4231" y1="33.4961" x2="-8.61258" y2="-2.53973" gradientUnits="userSpaceOnUse">
<stop stop-color="#535B83"/>
<stop offset="1" stop-color="#3E4459"/>
</linearGradient>
<linearGradient id="paint2_linear" x1="10.3277" y1="19.0069" x2="26.7734" y2="35.4526" gradientUnits="userSpaceOnUse">
<stop stop-color="#EEF5F6"/>
<stop offset="1" stop-color="#CBE5E8"/>
</linearGradient>
<linearGradient id="paint3_linear" x1="2.30513" y1="3.86025" x2="12.5938" y2="14.149" gradientUnits="userSpaceOnUse">
<stop stop-color="#6083FF"/>
<stop offset="1" stop-color="#3002B4"/>
</linearGradient>
<linearGradient id="paint4_linear" x1="14.3355" y1="4.15347" x2="25.6981" y2="15.5161" gradientUnits="userSpaceOnUse">
<stop stop-color="#C1E9AF"/>
<stop offset="1" stop-color="#4FC123"/>
</linearGradient>
<linearGradient id="paint5_linear" x1="3.48744" y1="17.2629" x2="13.3046" y2="27.0801" gradientUnits="userSpaceOnUse">
<stop stop-color="#FE99A0"/>
<stop offset="1" stop-color="#FD4755"/>
</linearGradient>
<linearGradient id="paint6_linear" x1="15.2475" y1="17.261" x2="23.6031" y2="25.6166" gradientUnits="userSpaceOnUse">
<stop stop-color="#FFE177"/>
<stop offset="1" stop-color="#FE9738"/>
</linearGradient>
<linearGradient id="paint7_linear" x1="6.54425" y1="4.56586" x2="10.9413" y2="8.96286" gradientUnits="userSpaceOnUse">
<stop stop-color="#EEF5F6"/>
<stop offset="1" stop-color="#CBE5E8"/>
</linearGradient>
<linearGradient id="paint8_linear" x1="5.06524" y1="10.9933" x2="12.1655" y2="18.0936" gradientUnits="userSpaceOnUse">
<stop stop-color="#EEF5F6"/>
<stop offset="1" stop-color="#CBE5E8"/>
</linearGradient>
<linearGradient id="paint9_linear" x1="18.306" y1="4.56586" x2="22.703" y2="8.96286" gradientUnits="userSpaceOnUse">
<stop stop-color="#EEF5F6"/>
<stop offset="1" stop-color="#CBE5E8"/>
</linearGradient>
<linearGradient id="paint10_linear" x1="16.8272" y1="10.9933" x2="23.9275" y2="18.0936" gradientUnits="userSpaceOnUse">
<stop stop-color="#EEF5F6"/>
<stop offset="1" stop-color="#CBE5E8"/>
</linearGradient>
<linearGradient id="paint11_linear" x1="6.54425" y1="17.3702" x2="10.9413" y2="21.7672" gradientUnits="userSpaceOnUse">
<stop stop-color="#EEF5F6"/>
<stop offset="1" stop-color="#CBE5E8"/>
</linearGradient>
<linearGradient id="paint12_linear" x1="5.06524" y1="23.7975" x2="12.1655" y2="30.8978" gradientUnits="userSpaceOnUse">
<stop stop-color="#EEF5F6"/>
<stop offset="1" stop-color="#CBE5E8"/>
</linearGradient>
<linearGradient id="paint13_linear" x1="18.306" y1="17.3702" x2="22.703" y2="21.7672" gradientUnits="userSpaceOnUse">
<stop stop-color="#EEF5F6"/>
<stop offset="1" stop-color="#CBE5E8"/>
</linearGradient>
<linearGradient id="paint14_linear" x1="16.8272" y1="23.7975" x2="23.9275" y2="30.8978" gradientUnits="userSpaceOnUse">
<stop stop-color="#EEF5F6"/>
<stop offset="1" stop-color="#CBE5E8"/>
</linearGradient>
<linearGradient id="paint15_linear" x1="14.3834" y1="36.1825" x2="14.3834" y2="40.4089" gradientUnits="userSpaceOnUse">
<stop stop-color="#3E4459" stop-opacity="0"/>
<stop offset="1" stop-color="#383E49"/>
</linearGradient>
<linearGradient id="paint16_linear" x1="14.3835" y1="36.2153" x2="14.3835" y2="26.9704" gradientUnits="userSpaceOnUse">
<stop stop-color="#EEF5F6" stop-opacity="0"/>
<stop offset="1" stop-color="white"/>
</linearGradient>
<linearGradient id="paint17_linear" x1="6.74982" y1="31.6942" x2="10.9774" y2="35.9216" gradientUnits="userSpaceOnUse">
<stop stop-color="#C1E9AF"/>
<stop offset="1" stop-color="#4FC123"/>
</linearGradient>
<linearGradient id="paint18_linear" x1="18.4788" y1="31.694" x2="22.7063" y2="35.9215" gradientUnits="userSpaceOnUse">
<stop stop-color="#FE99A0"/>
<stop offset="1" stop-color="#FD4755"/>
</linearGradient>
</defs>
</svg>
