<svg width="21" height="21" viewBox="0 0 21 21" fill="none" xmlns="http://www.w3.org/2000/svg">
<circle cx="10.8047" cy="10.8237" r="10" fill="#FDCB6E"/>
<path fill-rule="evenodd" clip-rule="evenodd" d="M7.66933 6.94268C8.50083 6.11118 9.62859 5.64404 10.8045 5.64404C11.9804 5.64404 13.1082 6.11118 13.9397 6.94268C14.7712 7.77418 15.2383 8.90193 15.2383 10.0779C15.2383 11.2538 14.7712 12.3815 13.9397 13.213L10.8045 16.3482L7.66933 13.213C7.25759 12.8013 6.93097 12.3126 6.70814 11.7746C6.4853 11.2367 6.37061 10.6601 6.37061 10.0779C6.37061 9.49559 6.4853 8.91903 6.70814 8.38109C6.93097 7.84315 7.25759 7.35438 7.66933 6.94268ZM10.8045 11.3446C11.1405 11.3446 11.4627 11.2111 11.7002 10.9736C11.9378 10.736 12.0712 10.4138 12.0712 10.0779C12.0712 9.74189 11.9378 9.41969 11.7002 9.18213C11.4627 8.94457 11.1405 8.81111 10.8045 8.81111C10.4685 8.81111 10.1463 8.94457 9.90879 9.18213C9.67123 9.41969 9.53777 9.74189 9.53777 10.0779C9.53777 10.4138 9.67123 10.736 9.90879 10.9736C10.1463 11.2111 10.4685 11.3446 10.8045 11.3446Z" fill="black"/>
</svg>
