<svg width="39" height="38" viewBox="0 0 39 38" fill="none" xmlns="http://www.w3.org/2000/svg">
<path opacity="0.3" d="M19.6355 32.6411L10.3303 37.5332C9.29914 38.0753 8.09403 37.1997 8.291 36.0515L10.0681 25.6899C10.1463 25.2339 9.99513 24.7688 9.66383 24.4458L2.13571 17.1078C1.30149 16.2947 1.76185 14.8779 2.91465 14.7104L13.3182 13.1987C13.776 13.1321 14.1717 12.8447 14.3764 12.4298L19.029 3.00258C19.5446 1.95796 21.0343 1.95796 21.5498 3.00258L26.2024 12.4298C26.4072 12.8447 26.8029 13.1323 27.2607 13.1987L37.6643 14.7104C38.8171 14.8779 39.2775 16.2947 38.4433 17.1078L30.9152 24.4458C30.5838 24.7688 30.4328 25.2339 30.5109 25.6899L32.288 36.0515C32.485 37.1997 31.2797 38.0753 30.2486 37.5332L20.9434 32.6411C20.5341 32.4259 20.045 32.4259 19.6355 32.6411Z" fill="#1A1A1A"/>
<path d="M37.9944 14.0673L26.3859 12.6046C25.928 12.538 25.5323 12.2505 25.3276 11.8357L20.675 2.40846C20.1595 1.36385 18.6697 1.36385 18.1542 2.40846L13.5016 11.8357C13.2968 12.2505 12.9012 12.5381 12.4433 12.6046L2.37629 14.0673H0.834717V15.6361H0.840108C0.867296 15.9498 1.0014 16.261 1.26066 16.5137L8.78878 23.8517C9.12008 24.1746 9.27116 24.6398 9.19304 25.0958L7.63701 34.1684H7.39473V35.7371H7.39576C7.41893 36.741 8.50978 37.4361 9.45529 36.939L18.7605 32.047C19.1699 31.8317 19.6591 31.8317 20.0686 32.047L29.3738 36.939C30.3443 37.4493 31.4687 36.7035 31.4333 35.6566V34.1683H31.1921L29.6361 25.0957C29.5578 24.6398 29.709 24.1745 30.0403 23.8516L37.5684 16.5136C37.8277 16.2608 37.9944 16.0034 37.9944 15.636V14.0673Z" fill="url(#paint0_linear)"/>
<path d="M18.7605 30.5606L9.45533 35.4526C8.42414 35.9947 7.21903 35.1191 7.416 33.9709L9.19309 23.6094C9.27133 23.1534 9.12013 22.6882 8.78882 22.3653L1.26071 15.0272C0.426487 14.2141 0.886848 12.7974 2.03965 12.6299L12.4432 11.1181C12.901 11.0516 13.2967 10.7641 13.5014 10.3493L18.154 0.922014C18.6696 -0.122605 20.1593 -0.122605 20.6748 0.922014L25.3274 10.3493C25.5322 10.7641 25.9279 11.0517 26.3857 11.1181L36.7893 12.6299C37.9421 12.7974 38.4025 14.2141 37.5683 15.0272L30.0401 22.3653C29.7088 22.6882 29.5578 23.1534 29.6359 23.6094L31.413 33.9709C31.6099 35.1191 30.4047 35.9947 29.3736 35.4526L20.0684 30.5606C19.6592 30.3452 19.1701 30.3452 18.7605 30.5606Z" fill="url(#paint1_linear)"/>
<path d="M30.0283 35.3694C29.8423 35.3694 29.6611 35.3236 29.4892 35.2333L20.1839 30.3413C19.9477 30.2171 19.6816 30.1513 19.4146 30.1513C19.1477 30.1513 18.8815 30.2171 18.6453 30.3413L9.34 35.2333C9.16827 35.3236 8.9869 35.3694 8.80095 35.3694C8.46494 35.3695 8.13214 35.2127 7.91062 34.95C7.69025 34.6885 7.60123 34.3557 7.66008 34.0127L9.43717 23.6512C9.52917 23.1149 9.35136 22.5678 8.96178 22.1879L1.43367 14.8498C1.11085 14.5353 1.0013 14.0915 1.14056 13.663C1.27983 13.2344 1.62926 12.9398 2.07517 12.875L12.4788 11.3632C13.0174 11.285 13.4828 10.9469 13.7236 10.4589L18.3762 1.03163C18.5757 0.627482 18.9638 0.38623 19.4145 0.38623C19.8652 0.38623 20.2534 0.627482 20.4527 1.03163L25.1053 10.4589C25.3462 10.947 25.8116 11.2851 26.3502 11.3632L36.7538 12.875C37.1998 12.9398 37.5492 13.2344 37.6884 13.663C37.8277 14.0915 37.7182 14.5353 37.3955 14.8498L29.8672 22.1879C29.4776 22.5679 29.2998 23.1149 29.392 23.6513L31.1689 34.0127C31.2279 34.3556 31.1388 34.6885 30.9184 34.9498C30.6971 35.2125 30.3643 35.3694 30.0283 35.3694Z" fill="url(#paint2_linear)"/>
<defs>
<linearGradient id="paint0_linear" x1="19.4146" y1="0.738749" x2="19.4146" y2="36.7945" gradientUnits="userSpaceOnUse">
<stop offset="0.005" stop-color="#ECC02A"/>
<stop offset="1" stop-color="#D1893E"/>
</linearGradient>
<linearGradient id="paint1_linear" x1="19.4145" y1="-0.748045" x2="19.4145" y2="35.3077" gradientUnits="userSpaceOnUse">
<stop offset="0.005" stop-color="#FCF255"/>
<stop offset="1" stop-color="#FBC46E"/>
</linearGradient>
<linearGradient id="paint2_linear" x1="19.4145" y1="-0.487688" x2="19.4145" y2="35.0644" gradientUnits="userSpaceOnUse">
<stop offset="0.005" stop-color="#FDE97E"/>
<stop offset="1" stop-color="#FBB728"/>
</linearGradient>
</defs>
</svg>
