<svg width="40" height="42" viewBox="0 0 40 42" fill="none" xmlns="http://www.w3.org/2000/svg">
<path opacity="0.3" d="M20.1678 41.2321C30.7481 41.2321 39.3251 32.6551 39.3251 22.0748C39.3251 11.4945 30.7481 2.91748 20.1678 2.91748C9.58752 2.91748 1.0105 11.4945 1.0105 22.0748C1.0105 32.6551 9.58752 41.2321 20.1678 41.2321Z" fill="#1A1A1A"/>
<path d="M19.5365 40.7026C30.1168 40.7026 38.6938 32.1255 38.6938 21.5452C38.6938 10.965 30.1168 2.38794 19.5365 2.38794C8.95617 2.38794 0.37915 10.965 0.37915 21.5452C0.37915 32.1255 8.95617 40.7026 19.5365 40.7026Z" fill="url(#paint0_linear)"/>
<path d="M19.5377 38.9189C30.118 38.9189 38.695 30.3419 38.695 19.7616C38.695 9.18127 30.118 0.604248 19.5377 0.604248C8.95739 0.604248 0.380371 9.18127 0.380371 19.7616C0.380371 30.3419 8.95739 38.9189 19.5377 38.9189Z" fill="white"/>
<path d="M19.5364 38.7042C29.9981 38.7042 38.479 30.2233 38.479 19.7616C38.479 9.29987 29.9981 0.81897 19.5364 0.81897C9.07465 0.81897 0.59375 9.29987 0.59375 19.7616C0.59375 30.2233 9.07465 38.7042 19.5364 38.7042Z" fill="url(#paint1_linear)"/>
<path d="M19.5366 36.1784C28.6034 36.1784 35.9535 28.8283 35.9535 19.7614C35.9535 10.6946 28.6034 3.34448 19.5366 3.34448C10.4697 3.34448 3.11963 10.6946 3.11963 19.7614C3.11963 28.8283 10.4697 36.1784 19.5366 36.1784Z" fill="white"/>
<path d="M35.7008 19.7615C35.7008 20.0583 35.6924 20.353 35.6766 20.6466C35.2178 29.1623 28.1669 35.9259 19.5364 35.9259C10.906 35.9259 3.85511 29.1623 3.39627 20.6466C3.38049 20.353 3.37207 20.0583 3.37207 19.7615C3.37207 10.8343 10.6092 3.59717 19.5364 3.59717C28.4637 3.59717 35.7008 10.8343 35.7008 19.7615Z" fill="url(#paint2_linear)"/>
<path d="M35.6771 20.6466C35.2182 29.1624 28.1674 35.926 19.5369 35.926C10.9064 35.926 3.85556 29.1624 3.39673 20.6466C3.85556 12.1309 10.9064 5.36731 19.5369 5.36731C28.1674 5.36731 35.2182 12.1309 35.6771 20.6466Z" fill="url(#paint3_linear)"/>
<path opacity="0.75" d="M19.5366 10.7347C19.2714 10.7347 19.0564 10.5197 19.0564 10.2546V7.61374C19.0564 7.34854 19.2714 7.13354 19.5366 7.13354C19.8018 7.13354 20.0168 7.34854 20.0168 7.61374V10.2546C20.0168 10.5197 19.8018 10.7347 19.5366 10.7347Z" fill="#1A1A1A"/>
<path opacity="0.75" d="M29.7737 20.9721C29.7737 20.7069 29.9887 20.4919 30.2539 20.4919H32.8947C33.1599 20.4919 33.3749 20.7069 33.3749 20.9721C33.3749 21.2373 33.1599 21.4523 32.8947 21.4523H30.2539C29.9886 21.4523 29.7737 21.2373 29.7737 20.9721Z" fill="#1A1A1A"/>
<path opacity="0.75" d="M5.698 20.9721C5.698 20.7069 5.913 20.4919 6.17819 20.4919H8.81901C9.0842 20.4919 9.2992 20.7069 9.2992 20.9721C9.2992 21.2373 9.0842 21.4523 8.81901 21.4523H6.17819C5.913 21.4523 5.698 21.2373 5.698 20.9721Z" fill="#1A1A1A"/>
<path d="M19.5363 10.2611C19.2712 10.2611 19.0562 10.0461 19.0562 9.78092V7.14011C19.0562 6.87491 19.2712 6.65991 19.5363 6.65991C19.8015 6.65991 20.0165 6.87491 20.0165 7.14011V9.78092C20.0165 10.0461 19.8015 10.2611 19.5363 10.2611Z" fill="#FBCC4A"/>
<path d="M19.5363 32.5365C19.2712 32.5365 19.0562 32.3215 19.0562 32.0563V29.4155C19.0562 29.1503 19.2712 28.9353 19.5363 28.9353C19.8015 28.9353 20.0165 29.1503 20.0165 29.4155V32.0563C20.0165 32.3215 19.8015 32.5365 19.5363 32.5365Z" fill="#FBCC4A"/>
<path d="M29.7737 20.4984C29.7737 20.2332 29.9887 20.0182 30.2539 20.0182H32.8947C33.1599 20.0182 33.3749 20.2332 33.3749 20.4984C33.3749 20.7636 33.1599 20.9786 32.8947 20.9786H30.2539C29.9886 20.9786 29.7737 20.7636 29.7737 20.4984Z" fill="url(#paint4_linear)"/>
<path d="M5.698 20.4984C5.698 20.2332 5.913 20.0182 6.17819 20.0182H8.81901C9.0842 20.0182 9.2992 20.2332 9.2992 20.4984C9.2992 20.7636 9.0842 20.9786 8.81901 20.9786H6.17819C5.913 20.9786 5.698 20.7636 5.698 20.4984Z" fill="#FBCC4A"/>
<g opacity="0.75">
<path opacity="0.75" d="M18.53 20.2277L20.5392 22.2369L26.0831 14.684L18.53 20.2277Z" fill="#1A1A1A"/>
<path opacity="0.75" d="M18.5294 22.2369L20.5386 20.2277L10.3811 12.0795L18.5294 22.2369Z" fill="#1A1A1A"/>
</g>
<path d="M18.5295 19.4912L20.5387 21.5003L26.0826 13.9474L18.5295 19.4912Z" fill="url(#paint5_linear)"/>
<path d="M19.5339 20.4957L20.5385 21.5003L26.0824 13.9474L19.5339 20.4957Z" fill="url(#paint6_linear)"/>
<path d="M18.5294 21.5004L20.5386 19.4912L10.3811 11.3429L18.5294 21.5004Z" fill="url(#paint7_linear)"/>
<path d="M19.534 20.4958L20.5386 19.4912L10.3811 11.3429L19.534 20.4958Z" fill="url(#paint8_linear)"/>
<path opacity="0.75" d="M19.5364 23.3396C20.6407 23.3396 21.5359 22.4444 21.5359 21.3401C21.5359 20.2358 20.6407 19.3406 19.5364 19.3406C18.4321 19.3406 17.5369 20.2358 17.5369 21.3401C17.5369 22.4444 18.4321 23.3396 19.5364 23.3396Z" fill="#1A1A1A"/>
<path d="M19.5364 22.4978C20.6407 22.4978 21.5359 21.6026 21.5359 20.4983C21.5359 19.394 20.6407 18.4988 19.5364 18.4988C18.4321 18.4988 17.5369 19.394 17.5369 20.4983C17.5369 21.6026 18.4321 22.4978 19.5364 22.4978Z" fill="#808080"/>
<path d="M19.5365 21.6558C20.1758 21.6558 20.6941 21.1375 20.6941 20.4982C20.6941 19.8589 20.1758 19.3406 19.5365 19.3406C18.8972 19.3406 18.3789 19.8589 18.3789 20.4982C18.3789 21.1375 18.8972 21.6558 19.5365 21.6558Z" fill="#333333"/>
<defs>
<linearGradient id="paint0_linear" x1="0.247604" y1="21.5452" x2="38.6864" y2="21.5452" gradientUnits="userSpaceOnUse">
<stop stop-color="#999999"/>
<stop offset="0.499" stop-color="#CCCCCC"/>
<stop offset="1" stop-color="#999999"/>
</linearGradient>
<linearGradient id="paint1_linear" x1="19.5364" y1="0.585344" x2="19.5364" y2="38.5969" gradientUnits="userSpaceOnUse">
<stop stop-color="white"/>
<stop offset="1" stop-color="#F2F2F2"/>
</linearGradient>
<linearGradient id="paint2_linear" x1="5.43471" y1="19.7615" x2="34.2201" y2="19.7615" gradientUnits="userSpaceOnUse">
<stop stop-color="#B3B3B3"/>
<stop offset="0.493" stop-color="#CCCCCC"/>
<stop offset="1" stop-color="#B3B3B3"/>
</linearGradient>
<linearGradient id="paint3_linear" x1="19.5369" y1="5.36731" x2="19.5369" y2="35.8334" gradientUnits="userSpaceOnUse">
<stop stop-color="#333333"/>
<stop offset="1" stop-color="#4D4D4D"/>
</linearGradient>
<linearGradient id="paint4_linear" x1="19.0901" y1="20.9512" x2="-7.37068" y2="21.911" gradientUnits="userSpaceOnUse">
<stop stop-color="#FBCB4B"/>
<stop offset="1" stop-color="#E6E6E6"/>
</linearGradient>
<linearGradient id="paint5_linear" x1="19.5341" y1="20.4957" x2="26.0825" y2="13.9473" gradientUnits="userSpaceOnUse">
<stop stop-color="#FCE93C"/>
<stop offset="1" stop-color="#F7962A"/>
</linearGradient>
<linearGradient id="paint6_linear" x1="20.0362" y1="20.998" x2="26.5846" y2="14.4496" gradientUnits="userSpaceOnUse">
<stop stop-color="#FBC94B"/>
<stop offset="0.999" stop-color="#D27022"/>
</linearGradient>
<linearGradient id="paint7_linear" x1="19.534" y1="20.4958" x2="10.3811" y2="11.3429" gradientUnits="userSpaceOnUse">
<stop stop-color="#FBC94B"/>
<stop offset="0.999" stop-color="#D27022"/>
</linearGradient>
<linearGradient id="paint8_linear" x1="20.0363" y1="19.9935" x2="10.8828" y2="10.8411" gradientUnits="userSpaceOnUse">
<stop stop-color="#FCEA3C"/>
<stop offset="1" stop-color="#F7962A"/>
</linearGradient>
</defs>
</svg>
