<svg width="34" height="41" viewBox="0 0 34 41" fill="none" xmlns="http://www.w3.org/2000/svg">
<path d="M29.3159 40.2562H2.7806C1.66871 40.2562 0.767334 39.3668 0.767334 38.2698V2.36093C0.767334 1.26387 1.66871 0.374512 2.7806 0.374512H29.3159C30.4278 0.374512 31.3292 1.26387 31.3292 2.36093V38.2697C31.3293 39.3668 30.4279 40.2562 29.3159 40.2562Z" fill="url(#paint0_linear)"/>
<path d="M20.6055 1.95142L21.3551 2.69103H21.7349L22.1856 3.13582H20.6055V1.95142Z" fill="url(#paint1_linear)"/>
<path d="M31.3293 38.2697V6.02769L29.1044 3.83248C28.8749 3.42178 28.4322 3.14331 27.9233 3.14331H4.53695C3.7925 3.14331 3.18896 3.7388 3.18896 4.47333V36.6512C3.18896 37.3489 3.54395 37.9646 4.08519 38.3328L6.0345 40.2561H29.3159C30.4279 40.2561 31.3293 39.3667 31.3293 38.2697Z" fill="url(#paint2_linear)"/>
<path d="M23.5526 38.5559H5.11935C3.97664 38.5559 3.05029 37.6419 3.05029 36.5144V4.33661C3.05029 3.60208 3.65383 3.00659 4.39828 3.00659H27.7846C28.5291 3.00659 29.1326 3.60208 29.1326 4.33661V33.0502C29.1327 36.0909 26.6344 38.5559 23.5526 38.5559Z" fill="url(#paint3_linear)"/>
<path d="M3.05029 29.0703V36.5144C3.05029 37.6418 3.97664 38.5558 5.11935 38.5558H23.5526C26.6344 38.5558 29.1327 36.0908 29.1327 33.0501V29.0703H3.05029Z" fill="url(#paint4_linear)"/>
<path d="M7.1882 32.0711V36.5142C7.1882 37.6417 6.26186 38.5557 5.11914 38.5557H27.6904C30.7722 38.5557 33.2705 36.0907 33.2705 33.05V32.0711C33.2705 31.3366 32.667 30.7411 31.9225 30.7411H8.53627C7.79174 30.7411 7.1882 31.3366 7.1882 32.0711Z" fill="url(#paint5_linear)"/>
<path d="M10.1042 4.79692C10.1042 5.18315 10.317 5.5205 10.6323 5.70333L29.1329 23.9572V10.1216L21.9216 3.00647H10.1753C10.1301 3.12299 10.1042 3.24897 10.1042 3.38097V4.79692Z" fill="url(#paint6_linear)"/>
<path d="M20.9269 5.84848H11.17C10.5823 5.84848 10.1042 5.37679 10.1042 4.79694V3.38114C10.1042 2.80129 10.5823 2.32959 11.17 2.32959H20.9269C21.5146 2.32959 21.9927 2.80129 21.9927 3.38114V4.79701C21.9927 5.37679 21.5146 5.84848 20.9269 5.84848ZM11.17 3.1897C11.0631 3.1897 10.9761 3.27557 10.9761 3.38106V4.79694C10.9761 4.90243 11.0631 4.98829 11.17 4.98829H20.9269C21.0339 4.98829 21.1209 4.90243 21.1209 4.79694V3.38114C21.1209 3.27557 21.0338 3.18978 20.9269 3.18978H11.17V3.1897Z" fill="url(#paint7_linear)"/>
<path d="M20.1363 4.20624H11.9598C11.6498 4.20624 11.3984 3.95827 11.3984 3.65235V2.25774C11.3984 1.95183 11.6498 1.70386 11.9598 1.70386H20.1364C20.4465 1.70386 20.6978 1.95183 20.6978 2.25774V3.65227C20.6978 3.95827 20.4464 4.20624 20.1363 4.20624Z" fill="url(#paint8_linear)"/>
<path d="M19.2674 2.32935H12.8296C12.6376 2.32935 12.4819 2.48293 12.4819 2.67241V3.23755C12.4819 3.42703 12.6376 3.58061 12.8296 3.58061H19.2674C19.4594 3.58061 19.6151 3.42703 19.6151 3.23755V2.67241C19.6151 2.48293 19.4594 2.32935 19.2674 2.32935Z" fill="url(#paint9_linear)"/>
<path d="M13.8688 5.96566H12.6007C12.3983 5.96566 12.2341 5.80371 12.2341 5.60399V5.21299C12.2341 5.01327 12.3983 4.85132 12.6007 4.85132H13.8688C14.0712 4.85132 14.2353 5.01327 14.2353 5.21299V5.60399C14.2353 5.80371 14.0712 5.96566 13.8688 5.96566Z" fill="url(#paint10_linear)"/>
<path d="M19.4962 5.96566H18.2281C18.0257 5.96566 17.8616 5.80371 17.8616 5.60399V5.21299C17.8616 5.01327 18.0257 4.85132 18.2281 4.85132H19.4962C19.6986 4.85132 19.8628 5.01327 19.8628 5.21299V5.60399C19.8628 5.80371 19.6986 5.96566 19.4962 5.96566Z" fill="url(#paint11_linear)"/>
<path d="M8.93551 11.7916H7.19188C6.43799 11.7916 5.82471 11.1864 5.82471 10.4426V8.72223C5.82471 7.9784 6.43799 7.37329 7.19188 7.37329H8.93551C9.68939 7.37329 10.3027 7.9784 10.3027 8.72223V10.4426C10.3027 11.1864 9.68939 11.7916 8.93551 11.7916ZM7.19188 8.23348C6.91876 8.23348 6.69652 8.45276 6.69652 8.72223V10.4426C6.69652 10.7121 6.91876 10.9314 7.19188 10.9314H8.93551C9.20863 10.9314 9.43086 10.7121 9.43086 10.4426V8.72223C9.43086 8.45276 9.20863 8.23348 8.93551 8.23348H7.19188Z" fill="#3E5959"/>
<path d="M13.7096 10.8406L10.1169 14.3854L5.28149 9.63168C5.08097 9.43305 5.08097 9.13668 5.28149 8.93883C5.4828 8.7402 5.80855 8.7402 6.00906 8.93883L7.12816 10.043C7.26052 10.1728 7.47451 10.1728 7.60687 10.043L9.89024 7.79008C10.0908 7.59146 10.4165 7.59146 10.6178 7.79008L13.7096 10.8406Z" fill="url(#paint12_linear)"/>
<path d="M10.5922 7.73925C10.3913 7.54102 10.0655 7.54102 9.86458 7.73925L7.58153 9.99186C7.44925 10.1224 7.23486 10.1224 7.10258 9.99186L5.9838 8.888C5.78289 8.68977 5.45707 8.68977 5.25615 8.888C5.05524 9.08624 5.05524 9.40771 5.25615 9.60595L6.67508 11.006C7.04346 11.3694 7.64065 11.3694 8.00904 11.006L10.5922 8.4572C10.7931 8.25897 10.7931 7.93757 10.5922 7.73925Z" fill="url(#paint13_linear)"/>
<path d="M8.93551 17.891H7.19188C6.43799 17.891 5.82471 17.2859 5.82471 16.5421V14.8217C5.82471 14.0779 6.43799 13.4728 7.19188 13.4728H8.93551C9.68939 13.4728 10.3027 14.0779 10.3027 14.8217V16.5421C10.3027 17.2859 9.68939 17.891 8.93551 17.891ZM7.19188 14.333C6.91876 14.333 6.69652 14.5522 6.69652 14.8217V16.5421C6.69652 16.8116 6.91876 17.0309 7.19188 17.0309H8.93551C9.20863 17.0309 9.43086 16.8116 9.43086 16.5421V14.8217C9.43086 14.5522 9.20863 14.333 8.93551 14.333H7.19188Z" fill="#3E5959"/>
<path d="M13.7096 16.9403L10.1169 20.485L5.28149 15.7313C5.08097 15.5327 5.08097 15.2363 5.28149 15.0384C5.4828 14.8398 5.80855 14.8398 6.00906 15.0384L7.12816 16.1426C7.26052 16.2724 7.47451 16.2724 7.60687 16.1426L9.89024 13.8897C10.0908 13.6911 10.4165 13.6911 10.6178 13.8897L13.7096 16.9403Z" fill="url(#paint14_linear)"/>
<path d="M10.5922 13.8389C10.3913 13.6406 10.0655 13.6406 9.86458 13.8389L7.58153 16.0915C7.44925 16.222 7.23486 16.222 7.10258 16.0915L5.9838 14.9876C5.78289 14.7894 5.45707 14.7894 5.25615 14.9876C5.05524 15.1858 5.05524 15.5073 5.25615 15.7056L6.67508 17.1056C7.04346 17.469 7.64065 17.469 8.00904 17.1056L10.5922 14.5568C10.7931 14.3586 10.7931 14.0372 10.5922 13.8389Z" fill="url(#paint15_linear)"/>
<path d="M8.93551 23.9907H7.19188C6.43799 23.9907 5.82471 23.3856 5.82471 22.6417V20.9213C5.82471 20.1775 6.43799 19.5724 7.19188 19.5724H8.93551C9.68939 19.5724 10.3027 20.1775 10.3027 20.9213V22.6417C10.3027 23.3856 9.68939 23.9907 8.93551 23.9907ZM7.19188 20.4326C6.91876 20.4326 6.69652 20.6519 6.69652 20.9213V22.6417C6.69652 22.9112 6.91876 23.1305 7.19188 23.1305H8.93551C9.20863 23.1305 9.43086 22.9112 9.43086 22.6417V20.9213C9.43086 20.6519 9.20863 20.4326 8.93551 20.4326H7.19188Z" fill="#3E5959"/>
<path d="M13.7096 23.0399L10.1169 26.5846L5.28149 21.8309C5.08097 21.6323 5.08097 21.3359 5.28149 21.1381C5.4828 20.9394 5.80855 20.9394 6.00906 21.1381L7.12816 22.2422C7.26052 22.372 7.47451 22.372 7.60687 22.2422L9.89024 19.9893C10.0908 19.7907 10.4165 19.7907 10.6178 19.9893L13.7096 23.0399Z" fill="url(#paint16_linear)"/>
<path d="M10.5922 19.9385C10.3913 19.7402 10.0655 19.7402 9.86458 19.9385L7.58153 22.1911C7.44925 22.3216 7.23486 22.3216 7.10258 22.1911L5.9838 21.0872C5.78289 20.889 5.45707 20.889 5.25615 21.0872C5.05524 21.2855 5.05524 21.6069 5.25615 21.8052L6.67508 23.2052C7.04346 23.5686 7.64065 23.5686 8.00904 23.2052L10.5922 20.6564C10.7931 20.4582 10.7931 20.1368 10.5922 19.9385Z" fill="url(#paint17_linear)"/>
<path d="M8.93575 30.0903H7.19212C6.43824 30.0903 5.82495 29.4852 5.82495 28.7413V27.0209C5.82495 26.2771 6.43824 25.672 7.19212 25.672H8.93575C9.68964 25.672 10.3029 26.2771 10.3029 27.0209V28.7413C10.3029 29.4852 9.68964 30.0903 8.93575 30.0903ZM7.19212 26.5322C6.919 26.5322 6.69677 26.7515 6.69677 27.0209V28.7413C6.69677 29.0108 6.919 29.2301 7.19212 29.2301H8.93575C9.20887 29.2301 9.43111 29.0108 9.43111 28.7413V27.0209C9.43111 26.7515 9.20887 26.5322 8.93575 26.5322H7.19212Z" fill="#3E5959"/>
<path d="M26.2205 9.21321H11.9581C11.7529 9.21321 11.5864 9.04899 11.5864 8.84645V8.34637C11.5864 8.14383 11.7529 7.97961 11.9581 7.97961H26.2206C26.4259 7.97961 26.5923 8.14383 26.5923 8.34637V8.84645C26.5922 9.04899 26.4259 9.21321 26.2205 9.21321Z" fill="#3E5959"/>
<path d="M22.9085 11.2806H11.9576C11.7524 11.2806 11.5859 11.1164 11.5859 10.9138V10.4138C11.5859 10.2112 11.7524 10.047 11.9576 10.047H22.9085C23.1137 10.047 23.2802 10.2112 23.2802 10.4138V10.9138C23.2802 11.1164 23.1137 11.2806 22.9085 11.2806Z" fill="#3E5959"/>
<path d="M26.2203 15.2607H11.9579C11.7526 15.2607 11.5862 15.0965 11.5862 14.8939V14.3939C11.5862 14.1913 11.7526 14.0271 11.9579 14.0271H26.2203C26.4256 14.0271 26.5921 14.1913 26.5921 14.3939V14.8939C26.592 15.0965 26.4256 15.2607 26.2203 15.2607Z" fill="#3E5959"/>
<path d="M22.9085 17.3278H11.9576C11.7524 17.3278 11.5859 17.1636 11.5859 16.9611V16.461C11.5859 16.2585 11.7524 16.0942 11.9576 16.0942H22.9085C23.1137 16.0942 23.2802 16.2585 23.2802 16.461V16.9611C23.2802 17.1636 23.1137 17.3278 22.9085 17.3278Z" fill="#3E5959"/>
<path d="M26.2203 21.3862H11.9579C11.7526 21.3862 11.5862 21.222 11.5862 21.0194V20.5193C11.5862 20.3168 11.7526 20.1526 11.9579 20.1526H26.2203C26.4256 20.1526 26.5921 20.3168 26.5921 20.5193V21.0194C26.592 21.222 26.4256 21.3862 26.2203 21.3862Z" fill="#3E5959"/>
<path d="M22.9085 23.4534H11.9576C11.7524 23.4534 11.5859 23.2892 11.5859 23.0867V22.5866C11.5859 22.3841 11.7524 22.2198 11.9576 22.2198H22.9085C23.1137 22.2198 23.2802 22.3841 23.2802 22.5866V23.0867C23.2802 23.2893 23.1137 23.4534 22.9085 23.4534Z" fill="#3E5959"/>
<path d="M26.2203 27.3553H11.9579C11.7526 27.3553 11.5862 27.1911 11.5862 26.9885V26.4885C11.5862 26.2859 11.7526 26.1217 11.9579 26.1217H26.2203C26.4256 26.1217 26.5921 26.2859 26.5921 26.4885V26.9885C26.592 27.1912 26.4256 27.3553 26.2203 27.3553Z" fill="#3E5959"/>
<path d="M22.9085 29.4226H11.9576C11.7524 29.4226 11.5859 29.2583 11.5859 29.0558V28.5557C11.5859 28.3532 11.7524 28.189 11.9576 28.189H22.9085C23.1137 28.189 23.2802 28.3532 23.2802 28.5557V29.0558C23.2802 29.2583 23.1137 29.4226 22.9085 29.4226Z" fill="#3E5959"/>
<defs>
<linearGradient id="paint0_linear" x1="0.276342" y1="4.75368" x2="22.2484" y2="27.0226" gradientUnits="userSpaceOnUse">
<stop stop-color="#6C5CE7"/>
<stop offset="1" stop-color="#6C5CE7"/>
</linearGradient>
<linearGradient id="paint1_linear" x1="21.5726" y1="3.81248" x2="21.0123" y2="1.61277" gradientUnits="userSpaceOnUse">
<stop stop-color="#6D3326" stop-opacity="0"/>
<stop offset="1" stop-color="#6D3326"/>
</linearGradient>
<linearGradient id="paint2_linear" x1="32.0545" y1="30.6557" x2="19.1517" y2="22.6818" gradientUnits="userSpaceOnUse">
<stop stop-color="#6C5CE7"/>
<stop offset="1" stop-color="#473F85"/>
</linearGradient>
<linearGradient id="paint3_linear" x1="16.0915" y1="15.8481" x2="16.0915" y2="26.1061" gradientUnits="userSpaceOnUse">
<stop stop-color="#EEF0F6"/>
<stop offset="1" stop-color="#CCCBE8"/>
</linearGradient>
<linearGradient id="paint4_linear" x1="16.0915" y1="31.7923" x2="16.0915" y2="38.3929" gradientUnits="userSpaceOnUse">
<stop stop-color="#CCCBE8" stop-opacity="0"/>
<stop offset="1" stop-color="#7D7CB1"/>
</linearGradient>
<linearGradient id="paint5_linear" x1="19.1949" y1="33.564" x2="19.1949" y2="35.819" gradientUnits="userSpaceOnUse">
<stop stop-color="#EEF5F6"/>
<stop offset="1" stop-color="#CBCEE8"/>
</linearGradient>
<linearGradient id="paint6_linear" x1="21.1877" y1="12.8658" x2="16.0462" y2="-5.07886" gradientUnits="userSpaceOnUse">
<stop stop-color="#CBE5E8" stop-opacity="0"/>
<stop offset="1" stop-color="#7CA1B1"/>
</linearGradient>
<linearGradient id="paint7_linear" x1="16.0485" y1="2.32959" x2="16.0485" y2="5.84856" gradientUnits="userSpaceOnUse">
<stop stop-color="#6C5CE7"/>
<stop offset="0.0001" stop-color="#8A7BFF"/>
<stop offset="1" stop-color="#4D42A5"/>
</linearGradient>
<linearGradient id="paint8_linear" x1="16.0481" y1="2.0362" x2="16.0481" y2="4.52029" gradientUnits="userSpaceOnUse">
<stop stop-color="#FFE177"/>
<stop offset="1" stop-color="#FE9738"/>
</linearGradient>
<linearGradient id="paint9_linear" x1="16.0485" y1="3.41436" x2="16.0485" y2="2.17232" gradientUnits="userSpaceOnUse">
<stop stop-color="#FFE177"/>
<stop offset="1" stop-color="#FE9738"/>
</linearGradient>
<linearGradient id="paint10_linear" x1="13.2347" y1="4.85132" x2="13.2347" y2="5.96566" gradientUnits="userSpaceOnUse">
<stop stop-color="#FFE177"/>
<stop offset="1" stop-color="#FE9738"/>
</linearGradient>
<linearGradient id="paint11_linear" x1="18.8622" y1="4.85132" x2="18.8622" y2="5.96566" gradientUnits="userSpaceOnUse">
<stop stop-color="#FFE177"/>
<stop offset="1" stop-color="#FE9738"/>
</linearGradient>
<linearGradient id="paint12_linear" x1="10.489" y1="11.2164" x2="8.86356" y2="9.56896" gradientUnits="userSpaceOnUse">
<stop stop-color="#DEECF1" stop-opacity="0"/>
<stop offset="1" stop-color="#3E5959"/>
</linearGradient>
<linearGradient id="paint13_linear" x1="7.49118" y1="8.24536" x2="9.68072" y2="10.4645" gradientUnits="userSpaceOnUse">
<stop stop-color="#C1E9AF"/>
<stop offset="1" stop-color="#4FC123"/>
</linearGradient>
<linearGradient id="paint14_linear" x1="10.489" y1="17.316" x2="8.86355" y2="15.6686" gradientUnits="userSpaceOnUse">
<stop stop-color="#DEECF1" stop-opacity="0"/>
<stop offset="1" stop-color="#3E5959"/>
</linearGradient>
<linearGradient id="paint15_linear" x1="7.49118" y1="14.345" x2="9.68072" y2="16.5641" gradientUnits="userSpaceOnUse">
<stop stop-color="#C1E9AF"/>
<stop offset="1" stop-color="#4FC123"/>
</linearGradient>
<linearGradient id="paint16_linear" x1="10.489" y1="23.4156" x2="8.86355" y2="21.7682" gradientUnits="userSpaceOnUse">
<stop stop-color="#DEECF1" stop-opacity="0"/>
<stop offset="1" stop-color="#3E5959"/>
</linearGradient>
<linearGradient id="paint17_linear" x1="7.49118" y1="20.4446" x2="9.68072" y2="22.6637" gradientUnits="userSpaceOnUse">
<stop stop-color="#C1E9AF"/>
<stop offset="1" stop-color="#4FC123"/>
</linearGradient>
</defs>
</svg>
