<svg width="30" height="38" viewBox="0 0 30 38" fill="none" xmlns="http://www.w3.org/2000/svg">
<path opacity="0.3" d="M27.7104 37.4523L15.7924 27.192C15.4152 26.8673 14.8604 26.8673 14.4831 27.192L2.56517 37.4523C1.90995 38.0164 0.901367 37.5461 0.901367 36.6767V3.26011C0.901367 2.26302 1.70168 1.45459 2.68902 1.45459H27.5866C28.5739 1.45459 29.3743 2.2629 29.3743 3.26011V36.6767C29.3742 37.5461 28.3656 38.0164 27.7104 37.4523Z" fill="#1A1A1A"/>
<path d="M27.1391 36.8753L15.2211 26.615C14.8439 26.2903 14.2891 26.2903 13.9118 26.615L1.99388 36.8753C1.33867 37.4393 0.330078 36.9691 0.330078 36.0996V2.68309C0.330078 1.68599 1.13039 0.877563 2.11773 0.877563H27.0154C28.0026 0.877563 28.803 1.68588 28.803 2.68309V36.0996C28.8029 36.9691 27.7943 37.4393 27.1391 36.8753Z" fill="url(#paint0_linear)"/>
<path d="M27.1391 36.1363L15.2211 25.8759C14.8439 25.5512 14.2891 25.5512 13.9118 25.8759L1.99388 36.1363C1.33867 36.7003 0.330078 36.2301 0.330078 35.3606V1.94407C0.330078 0.94698 1.13039 0.13855 2.11773 0.13855H27.0154C28.0026 0.13855 28.803 0.946864 28.803 1.94407V35.3606C28.8029 36.2301 27.7943 36.7003 27.1391 36.1363Z" fill="url(#paint1_linear)"/>
<path d="M27.7881 36.1511C27.6051 36.1511 27.4319 36.0852 27.2873 35.9607L15.3693 25.7004C15.1456 25.5078 14.8605 25.4018 14.5665 25.4018C14.2725 25.4018 13.9874 25.5078 13.7637 25.7004L1.84572 35.9607C1.70108 36.0852 1.52788 36.1511 1.34485 36.1511C1.14469 36.1511 0.945667 36.071 0.798743 35.9313C0.643936 35.7842 0.558594 35.5816 0.558594 35.3607V1.94413C0.558594 1.07593 1.25802 0.369507 2.11774 0.369507H27.0153C27.875 0.369507 28.5744 1.07593 28.5744 1.94413V35.3607C28.5743 35.8555 28.1745 36.1511 27.7881 36.1511Z" fill="url(#paint2_linear)"/>
<path d="M28.8029 14.2823V1.94407C28.8029 0.94698 28.0026 0.13855 27.0152 0.13855H2.11773C1.1305 0.13855 0.330078 0.946865 0.330078 1.94407V14.2823H28.8029Z" fill="url(#paint3_linear)"/>
<path d="M28.8029 13.1084V1.94407C28.8029 0.94698 28.0026 0.13855 27.0152 0.13855H2.11773C1.1305 0.13855 0.330078 0.946865 0.330078 1.94407V13.1084H28.8029Z" fill="url(#paint4_linear)"/>
<path d="M0.558594 12.8777V1.94413C0.558594 1.07593 1.25802 0.369507 2.11774 0.369507H27.0153C27.875 0.369507 28.5744 1.07593 28.5744 1.94413V12.8777H0.558594Z" fill="url(#paint5_linear)"/>
<path opacity="0.3" d="M14.4983 10.1247L12.1266 11.3841C11.8638 11.5236 11.5566 11.2983 11.6068 11.0028L12.0598 8.33549C12.0796 8.21814 12.0411 8.09836 11.9567 8.01528L10.038 6.12633C9.8254 5.91701 9.94273 5.55226 10.2366 5.50922L12.8882 5.12012C13.0048 5.10304 13.1057 5.02896 13.1579 4.92222L14.3437 2.49543C14.4751 2.22646 14.8547 2.22646 14.9862 2.49543L16.172 4.92222C16.2242 5.02896 16.3251 5.10304 16.4418 5.12012L19.0934 5.50922C19.3872 5.55237 19.5045 5.91701 19.2919 6.12633L17.3732 8.01528C17.2888 8.09836 17.2503 8.21814 17.2702 8.33549L17.7232 11.0028C17.7733 11.2983 17.4662 11.5237 17.2033 11.3841L14.8317 10.1247C14.7273 10.0694 14.6027 10.0694 14.4983 10.1247Z" fill="#1A1A1A"/>
<path d="M19.1719 5.31988H18.779L16.2132 4.94336C16.0966 4.92628 15.9957 4.8522 15.9435 4.74547L14.7577 2.31868C14.6263 2.0497 14.2466 2.0497 14.1151 2.31868L12.9294 4.74547C12.8772 4.8522 12.7763 4.92628 12.6596 4.94336L10.0938 5.31988H9.70093V5.72375H9.7023C9.70927 5.80453 9.74343 5.88461 9.80946 5.94969L11.7282 7.83864C11.8126 7.92172 11.8511 8.0415 11.8312 8.15885L11.4347 10.4944H11.373V10.8982H11.3732C11.3791 11.1567 11.6571 11.3356 11.898 11.2076L14.2697 9.94822C14.374 9.89283 14.4988 9.89283 14.6031 9.94822L16.9748 11.2076C17.2221 11.3389 17.5087 11.147 17.4996 10.8775V10.4944H17.4382L17.0416 8.15885C17.0217 8.0415 17.0602 7.92172 17.1447 7.83864L19.0634 5.94969C19.1294 5.88461 19.1636 5.80453 19.1705 5.72375H19.1719V5.31988Z" fill="url(#paint6_linear)"/>
<path d="M14.2698 9.5657L11.8981 10.8251C11.6353 10.9646 11.3281 10.7392 11.3782 10.4437L11.8312 7.77645C11.8511 7.65909 11.8126 7.53932 11.7282 7.45623L9.8095 5.56728C9.59688 5.35796 9.71421 4.99321 10.0081 4.95017L12.6597 4.56107C12.7763 4.54399 12.8772 4.46991 12.9294 4.36318L14.1152 1.93639C14.2466 1.66753 14.6262 1.66753 14.7577 1.93639L15.9435 4.36318C15.9957 4.46991 16.0966 4.54399 16.2132 4.56107L18.8648 4.95017C19.1587 4.99333 19.276 5.35796 19.0634 5.56728L17.1447 7.45623C17.0603 7.53932 17.0218 7.65909 17.0417 7.77645L17.4947 10.4437C17.5448 10.7392 17.2377 10.9647 16.9748 10.8251L14.6031 9.5657C14.4988 9.51031 14.3742 9.51031 14.2698 9.5657Z" fill="white"/>
<path d="M17.1413 10.7519C17.1024 10.7519 17.0641 10.7421 17.0278 10.7228L14.6561 9.46359C14.5886 9.42758 14.5126 9.40866 14.4363 9.40866C14.3601 9.40866 14.284 9.42758 14.2165 9.46359L11.8448 10.7228C11.8084 10.7421 11.7702 10.7519 11.7312 10.7519C11.6604 10.7519 11.5902 10.7183 11.5433 10.6623C11.497 10.6069 11.4783 10.536 11.4907 10.463L11.9437 7.79572C11.9699 7.64098 11.9191 7.48313 11.8079 7.37339L9.88918 5.48444C9.8212 5.41751 9.79812 5.32313 9.82737 5.23185C9.85662 5.14058 9.93031 5.07792 10.0243 5.06407L12.6758 4.67497C12.8297 4.65247 12.9627 4.55485 13.0316 4.41407L14.2175 1.98717C14.2595 1.9012 14.3412 1.84985 14.4363 1.84985C14.5313 1.84985 14.613 1.9012 14.6551 1.98717L15.8408 4.41396C15.9097 4.55485 16.0427 4.65236 16.1966 4.67497L18.8482 5.06407C18.9421 5.07792 19.0158 5.14058 19.0452 5.23185C19.0745 5.32313 19.0515 5.41751 18.9835 5.48444L17.0647 7.37339C16.9533 7.48313 16.9026 7.64098 16.9288 7.79572L17.3818 10.463C17.3943 10.536 17.3755 10.6068 17.3293 10.6623C17.2824 10.7183 17.2122 10.7519 17.1413 10.7519Z" fill="url(#paint7_linear)"/>
<defs>
<linearGradient id="paint0_linear" x1="14.5665" y1="36.2592" x2="14.5665" y2="8.58846" gradientUnits="userSpaceOnUse">
<stop stop-color="#9E7435"/>
<stop offset="0.995" stop-color="#9F9823"/>
</linearGradient>
<linearGradient id="paint1_linear" x1="14.5665" y1="35.5196" x2="14.5665" y2="7.85002" gradientUnits="userSpaceOnUse">
<stop offset="0.005" stop-color="#FCFF8B"/>
<stop offset="1" stop-color="#FBC97B"/>
</linearGradient>
<linearGradient id="paint2_linear" x1="14.5665" y1="35.3005" x2="14.5665" y2="7.98278" gradientUnits="userSpaceOnUse">
<stop offset="0.005" stop-color="#FCF039"/>
<stop offset="1" stop-color="#FBB953"/>
</linearGradient>
<linearGradient id="paint3_linear" x1="14.5665" y1="-4.10219" x2="14.5665" y2="19.7676" gradientUnits="userSpaceOnUse">
<stop stop-color="#A1621B"/>
<stop offset="1" stop-color="#A1501D"/>
</linearGradient>
<linearGradient id="paint4_linear" x1="14.5665" y1="-3.75024" x2="14.5665" y2="18.1394" gradientUnits="userSpaceOnUse">
<stop stop-color="#F7A447"/>
<stop offset="1" stop-color="#F78D4A"/>
</linearGradient>
<linearGradient id="paint5_linear" x1="14.5665" y1="-3.3814" x2="14.5665" y2="17.7287" gradientUnits="userSpaceOnUse">
<stop stop-color="#F7962A"/>
<stop offset="1" stop-color="#F77B2D"/>
</linearGradient>
<linearGradient id="paint6_linear" x1="14.4364" y1="1.88884" x2="14.4364" y2="11.1709" gradientUnits="userSpaceOnUse">
<stop stop-color="#AFAFAF"/>
<stop offset="0.995" stop-color="#A3A3A3"/>
</linearGradient>
<linearGradient id="paint7_linear" x1="14.4363" y1="1.62692" x2="14.4363" y2="10.6747" gradientUnits="userSpaceOnUse">
<stop stop-color="#F2F2F2"/>
<stop offset="0.995" stop-color="#E6E6E6"/>
</linearGradient>
</defs>
</svg>
