<svg width="24" height="25" viewBox="0 0 24 25" fill="none" xmlns="http://www.w3.org/2000/svg">
<path d="M10.6465 18.9498C12.4215 18.9494 14.1453 18.3552 15.5435 17.2618L19.9395 21.6578L21.3535 20.2438L16.9575 15.8478C18.0515 14.4494 18.6461 12.7252 18.6465 10.9498C18.6465 6.53877 15.0575 2.94977 10.6465 2.94977C6.23548 2.94977 2.64648 6.53877 2.64648 10.9498C2.64648 15.3608 6.23548 18.9498 10.6465 18.9498ZM10.6465 4.94977C13.9555 4.94977 16.6465 7.64077 16.6465 10.9498C16.6465 14.2588 13.9555 16.9498 10.6465 16.9498C7.33748 16.9498 4.64648 14.2588 4.64648 10.9498C4.64648 7.64077 7.33748 4.94977 10.6465 4.94977Z" fill="#6C5CE7"/>
</svg>
