<?xml version="1.0" encoding="utf-8"?>
<!-- Generator: Adobe Illustrator 21.1.0, SVG Export Plug-In . SVG Version: 6.00 Build 0)  -->
<svg version="1.1" id="Слой_1" xmlns="http://www.w3.org/2000/svg" xmlns:xlink="http://www.w3.org/1999/xlink" x="0px" y="0px"
	 viewBox="0 0 20 20" style="enable-background:new 0 0 20 20;" xml:space="preserve">
<style type="text/css">
	.st0{fill:#6C5CE7;}
</style>
<path class="st0" d="M9,2.378c-1.857,0-3.637,0.704-4.95,1.958C2.737,5.589,2,7.289,2,9.062c0,0.253-0.105,0.496-0.293,0.675
	C1.52,9.916,1.265,10.016,1,10.016c-0.265,0-0.52-0.101-0.707-0.28C0.105,9.558,0,9.315,0,9.062c0-2.279,0.948-4.465,2.636-6.076
	C4.324,1.374,6.613,0.468,9,0.468c0.265,0,0.52,0.101,0.707,0.28C9.895,0.927,10,1.17,10,1.423S9.895,1.919,9.707,2.098
	C9.52,2.277,9.265,2.378,9,2.378z M0.25,13.75c0.055-0.153,0.15-0.291,0.276-0.399c0.126-0.109,0.279-0.185,0.444-0.221l6-1.308
	c0.163-0.035,0.332-0.031,0.493,0.012c0.161,0.043,0.307,0.124,0.427,0.236c0.14,0.124,0.15,0.134,0.8,1.318
	c2.157-0.949,3.885-2.606,4.87-4.669c-1.27-0.611-1.28-0.611-1.41-0.754c-0.117-0.114-0.202-0.254-0.247-0.408
	c-0.045-0.153-0.05-0.315-0.013-0.471l1.37-5.662c0.038-0.158,0.118-0.304,0.232-0.424c0.114-0.12,0.258-0.211,0.418-0.263
	c0.234-0.08,0.475-0.137,0.72-0.172c0.253-0.056,0.511-0.088,0.77-0.095c1.22,0,2.39,0.463,3.253,1.286
	C19.515,2.578,20,3.696,20,4.86c-0.005,3.898-1.629,7.635-4.516,10.392c-2.887,2.757-6.801,4.307-10.884,4.312
	c-0.604,0-1.202-0.114-1.76-0.334c-0.558-0.221-1.065-0.544-1.492-0.952C0.92,17.87,0.581,17.386,0.35,16.853
	C0.119,16.32,0,15.749,0,15.172c0-0.243,0.02-0.486,0.06-0.726C0.102,14.21,0.166,13.976,0.25,13.75z M4.6,17.655
	c3.553-0.003,6.96-1.351,9.472-3.75S17.997,8.253,18,4.86c-0.003-0.658-0.277-1.288-0.764-1.753
	c-0.487-0.465-1.147-0.727-1.836-0.73h-0.33L14,6.808l0.54,0.267c0.86,0.43,1.54,0.773,1.18,1.518
	c-0.586,1.585-1.535,3.025-2.777,4.215C11.701,14,10.197,14.911,8.54,15.478c-0.84,0.325-1.17-0.277-1.62-1.108l-0.29-0.525
	L2,14.857v0.315c0.003,0.658,0.277,1.288,0.764,1.753C3.251,17.39,3.911,17.652,4.6,17.655z"/>
<path class="st0" d="M9,6.197c-0.796,0-1.559,0.302-2.121,0.839C6.316,7.573,6,8.302,6,9.062c0,0.253-0.105,0.496-0.293,0.675
	C5.52,9.916,5.265,10.016,5,10.016c-0.265,0-0.52-0.101-0.707-0.28C4.105,9.558,4,9.315,4,9.062c0-1.266,0.527-2.48,1.464-3.376
	C6.402,4.79,7.674,4.287,9,4.287c0.265,0,0.52,0.101,0.707,0.28C9.895,4.746,10,4.989,10,5.242c0,0.253-0.105,0.496-0.293,0.675
	C9.52,6.096,9.265,6.197,9,6.197z"/>
</svg>
