<svg width="27" height="28" viewBox="0 0 27 28" fill="none" xmlns="http://www.w3.org/2000/svg">
<path d="M23.0315 4.72164C20.4065 2.11014 17.1995 0.785645 13.5005 0.785645C9.76699 0.785645 6.55099 2.11164 3.94099 4.72314C1.32649 7.33464 0.000488281 10.5536 0.000488281 14.2856C0.000488281 17.9831 1.32499 21.1901 3.93649 23.8166C6.54799 26.4506 9.76549 27.7856 13.5005 27.7856C17.201 27.7856 20.408 26.4506 23.0345 23.8211C25.667 21.1916 27.0005 17.9831 27.0005 14.2856C27.0005 10.5536 25.6655 7.33464 23.0315 4.72164ZM20.9135 21.7001C19.208 23.4086 17.2595 24.3821 15.0005 24.6776V17.2856H18.0005V14.2856H15.0005V12.1856C15.0005 12.0673 15.0238 11.9502 15.0691 11.8409C15.1145 11.7316 15.1809 11.6323 15.2646 11.5487C15.3484 11.4651 15.4477 11.3989 15.5571 11.3537C15.6665 11.3086 15.7837 11.2854 15.902 11.2856H18.0005V8.28564H15.905C14.792 8.28564 13.8635 8.69514 13.1195 9.51864C12.3755 10.3391 12.0005 11.3411 12.0005 12.5306V14.2856H9.00049V17.2856H12.0005V24.6806C9.71749 24.3881 7.76149 23.4131 6.06499 21.7046C4.00249 19.6286 3.00049 17.2016 3.00049 14.2856C3.00049 11.3366 4.00099 8.90364 6.06349 6.84564C8.11849 4.78614 10.5515 3.78564 13.5005 3.78564C16.418 3.78564 18.8435 4.78764 20.918 6.85014C22.9925 8.90814 24.0005 11.3411 24.0005 14.2856C24.0005 17.1971 22.991 19.6241 20.9135 21.7001V21.7001Z" fill="#6C5CE7"/>
</svg>
