<svg width="118" height="118" viewBox="0 0 118 118" fill="none" xmlns="http://www.w3.org/2000/svg">
<circle cx="59.0002" cy="59.1218" r="58.4846" fill="#FDCB6E"/>
<path d="M93.092 37.7747L93.0922 37.7471C93.1052 35.3861 92.2698 33.5755 91.0014 32.4581C89.7383 31.3454 87.9514 30.8349 85.8721 31.244L93.092 37.7747ZM93.092 37.7747L93.0934 37.8023M93.092 37.7747L93.0934 37.8023M93.0934 37.8023C93.1391 38.7209 92.7795 39.7802 91.9725 40.8609L91.9724 40.8611M93.0934 37.8023L91.9724 40.8611M91.9724 40.8611C80.4576 56.2906 68.9524 71.7274 57.4568 87.1717C57.3866 87.2655 57.3171 87.3587 57.2481 87.4512C56.1277 88.9531 55.1408 90.276 53.7033 91.1512L53.6996 91.1535M91.9724 40.8611L53.6996 91.1535M53.6996 91.1535C52.4345 91.9312 51.3809 92.1993 50.4776 92.0937C49.5874 91.9895 48.6746 91.5025 47.7222 90.4234C40.4657 82.1885 33.239 73.9219 26.042 65.6233L26.0418 65.6231M53.6996 91.1535L26.0418 65.6231M26.0418 65.6231C24.0672 63.348 24.2841 60.0704 26.4947 57.947L26.0418 65.6231ZM38.6458 61.354L38.6409 61.3484C37.4083 59.9396 36.1012 58.5978 34.725 57.3289C33.5193 56.253 32.1264 55.8016 30.7293 55.8994C29.3196 55.998 27.8342 56.6624 26.4951 57.9465L38.6458 61.354ZM38.6458 61.354L38.6508 61.3595M38.6458 61.354L38.6508 61.3595M38.6508 61.3595C40.5772 63.4962 42.4827 65.6434 44.3919 67.7949C45.7212 69.2928 47.0524 70.7928 48.3938 72.2929C48.3944 72.2936 48.395 72.2943 48.3956 72.2949L48.4243 72.3274C48.7712 72.7192 49.0844 73.073 49.3581 73.3217C49.614 73.5543 50.0512 73.9054 50.6439 73.8927C51.2482 73.8798 51.6656 73.4986 51.9045 73.249C52.1545 72.9879 52.4327 72.6217 52.7358 72.2227L52.7713 72.1761L52.7718 72.1754M38.6508 61.3595L52.7718 72.1754M52.7718 72.1754C62.4208 59.4566 72.0634 46.7314 81.6997 33.9998L81.7012 33.9978M52.7718 72.1754L81.7012 33.9978M81.7012 33.9978C82.8297 32.4989 84.1555 31.5837 85.872 31.244L81.7012 33.9978Z" fill="#FDFDFD" stroke="black" stroke-width="2"/>
</svg>
