<svg width="26" height="26" viewBox="0 0 26 26" fill="none" xmlns="http://www.w3.org/2000/svg">
<path d="M13.0295 0.785645C9.63146 0.785645 9.20797 0.802053 7.87811 0.85831C6.54279 0.923943 5.63955 1.131 4.84258 1.44041C4.00846 1.75531 3.25306 2.24834 2.62902 2.88513C1.99046 3.5077 1.49716 4.26353 1.18431 5.09868C0.874897 5.89566 0.66784 6.7989 0.602206 8.13422C0.542043 9.46485 0.529541 9.88756 0.529541 13.2856C0.529541 16.6837 0.545949 17.1072 0.602206 18.4371C0.66784 19.7685 0.874897 20.6756 1.18431 21.4726C1.49921 22.3067 1.99224 23.0621 2.62902 23.6862C3.2516 24.3247 4.00742 24.818 4.84258 25.1309C5.63955 25.4364 6.5467 25.6473 7.87811 25.713C9.20875 25.7731 9.63146 25.7856 13.0295 25.7856C16.4276 25.7856 16.8511 25.7692 18.181 25.713C19.5124 25.6473 20.4195 25.4356 21.2165 25.1309C22.0506 24.816 22.806 24.3229 23.4301 23.6862C24.0694 23.0643 24.5629 22.3082 24.8748 21.4726C25.1803 20.6756 25.3912 19.7685 25.4569 18.4371C25.517 17.1064 25.5295 16.6837 25.5295 13.2856C25.5295 9.88756 25.5131 9.46407 25.4569 8.13422C25.3912 6.8028 25.1795 5.89097 24.8748 5.09868C24.5599 4.26457 24.0668 3.50916 23.4301 2.88513C22.8082 2.24574 22.0521 1.75231 21.2165 1.44041C20.4195 1.131 19.5124 0.923943 18.181 0.85831C16.8503 0.798146 16.4276 0.785645 13.0295 0.785645ZM13.0295 3.03593C16.3667 3.03593 16.7652 3.05233 18.0841 3.10859C19.3006 3.16563 19.9632 3.36878 20.4031 3.54068C20.947 3.74142 21.4392 4.06094 21.8439 4.47595C22.2582 4.87899 22.5765 5.37008 22.7753 5.91285C22.9472 6.35275 23.1503 7.01533 23.2074 8.23189C23.2636 9.5508 23.28 9.95007 23.28 13.2864C23.28 16.6228 23.2636 17.022 23.2027 18.341C23.1371 19.5575 22.9339 20.2201 22.7628 20.66C22.526 21.2468 22.2619 21.657 21.8259 22.1008C21.4198 22.5132 20.9279 22.8312 20.3851 23.0322C19.9507 23.2041 19.2788 23.4072 18.0575 23.4643C16.7316 23.5205 16.3409 23.5369 12.9952 23.5369C9.64943 23.5369 9.25954 23.5205 7.93203 23.4596C6.71547 23.3939 6.04429 23.1908 5.60439 23.0197C5.01057 22.7829 4.60349 22.5188 4.1675 22.0828C3.7276 21.6429 3.44787 21.2241 3.23222 20.642C3.0572 20.2076 2.85718 19.5356 2.79232 18.3144C2.74779 17.0041 2.72669 16.5978 2.72669 13.2677C2.72669 9.93913 2.74779 9.53205 2.79232 8.20532C2.85718 6.98408 3.0572 6.31368 3.23222 5.87769C3.44787 5.28308 3.72838 4.87678 4.1675 4.43688C4.60271 4.00167 5.01057 3.72039 5.60439 3.50005C6.04429 3.32893 6.69906 3.12578 7.92031 3.06484C9.24626 3.01717 9.63693 2.99998 12.978 2.99998L13.0295 3.03593ZM13.0295 6.87C12.1867 6.86969 11.3521 7.03547 10.5734 7.35785C9.79471 7.68024 9.08716 8.15291 8.4912 8.74887C7.89525 9.34482 7.42257 10.0524 7.10019 10.8311C6.7778 11.6098 6.61202 12.4444 6.61233 13.2872C6.61202 14.13 6.7778 14.9646 7.10019 15.7433C7.42257 16.522 7.89525 17.2296 8.4912 17.8255C9.08716 18.4215 9.79471 18.8942 10.5734 19.2166C11.3521 19.5389 12.1867 19.7047 13.0295 19.7044C13.8723 19.7047 14.707 19.5389 15.4857 19.2166C16.2644 18.8942 16.9719 18.4215 17.5679 17.8255C18.1638 17.2296 18.6365 16.522 18.9589 15.7433C19.2813 14.9646 19.4471 14.13 19.4467 13.2872C19.4471 12.4444 19.2813 11.6098 18.9589 10.8311C18.6365 10.0524 18.1638 9.34482 17.5679 8.74887C16.9719 8.15291 16.2644 7.68024 15.4857 7.35785C14.707 7.03547 13.8723 6.86969 13.0295 6.87V6.87ZM13.0295 17.4541C10.7261 17.4541 8.86261 15.5906 8.86261 13.2872C8.86261 10.9838 10.7261 9.12028 13.0295 9.12028C15.333 9.12028 17.1965 10.9838 17.1965 13.2872C17.1965 15.5906 15.333 17.4541 13.0295 17.4541ZM21.2056 6.61372C21.2051 7.01194 21.0467 7.39372 20.7649 7.67516C20.4832 7.9566 20.1013 8.11469 19.703 8.11469C19.5061 8.11469 19.3111 8.0759 19.1292 8.00055C18.9473 7.9252 18.782 7.81475 18.6428 7.67552C18.5036 7.53629 18.3931 7.37099 18.3178 7.18908C18.2424 7.00716 18.2036 6.81218 18.2036 6.61528C18.2036 6.41837 18.2424 6.2234 18.3178 6.04148C18.3931 5.85957 18.5036 5.69427 18.6428 5.55504C18.782 5.41581 18.9473 5.30536 19.1292 5.23001C19.3111 5.15466 19.5061 5.11587 19.703 5.11587C20.5289 5.11587 21.2056 5.78783 21.2056 6.61372V6.61372Z" fill="#6C5CE7"/>
</svg>
