<?xml version="1.0" encoding="utf-8"?>
<!-- Generator: Adobe Illustrator 21.1.0, SVG Export Plug-In . SVG Version: 6.00 Build 0)  -->
<svg version="1.1" id="Слой_1" xmlns="http://www.w3.org/2000/svg" xmlns:xlink="http://www.w3.org/1999/xlink" x="0px" y="0px"
	 viewBox="0 0 12.8 10" style="enable-background:new 0 0 12.8 10;" xml:space="preserve">
<style type="text/css">
	.st0{fill:#FDCB6E;}
</style>
<path class="st0" d="M6,0.6c0.2-0.4,0.7-0.4,0.9,0l1.1,2.3C8,3.1,8.2,3.2,8.3,3.2l2.5,0.3c0.4,0.1,0.6,0.6,0.3,0.9L9.3,6.1
	C9.1,6.2,9.1,6.4,9.1,6.6L9.6,9c0.1,0.4-0.4,0.7-0.7,0.5L6.7,8.3c-0.2-0.1-0.3-0.1-0.5,0L4,9.6C3.6,9.8,3.2,9.5,3.2,9l0.5-2.5
	c0-0.2,0-0.3-0.2-0.5L1.7,4.4C1.4,4.1,1.6,3.6,2,3.5l2.5-0.3c0.2,0,0.3-0.1,0.4-0.3L6,0.6z"/>
</svg>
