<?xml version="1.0" encoding="utf-8"?>
<!-- Generator: Adobe Illustrator 21.1.0, SVG Export Plug-In . SVG Version: 6.00 Build 0)  -->
<svg version="1.1" id="Слой_1" xmlns="http://www.w3.org/2000/svg" xmlns:xlink="http://www.w3.org/1999/xlink" x="0px" y="0px"
	 viewBox="0 0 13.752 17.136" style="enable-background:new 0 0 13.752 17.136;" xml:space="preserve">
<path d="M0,12.24h1.92v-1.872H0V7.392h1.92V0h5.472c2.208,0,3.816,0.448,4.824,1.344c1.024,0.896,1.536,2.128,1.536,3.696
	c0,0.928-0.208,1.8-0.624,2.616s-1.112,1.472-2.088,1.968c-0.96,0.496-2.272,0.744-3.936,0.744h-1.56v1.872H9.24v2.328H5.544v2.568
	H1.92v-2.568H0V12.24z M7.2,2.976H5.544v4.416h1.2c1.024,0,1.832-0.176,2.424-0.528c0.608-0.352,0.912-0.92,0.912-1.704
	C10.08,3.704,9.12,2.976,7.2,2.976z"/>
</svg>
