<svg width="31" height="31" viewBox="0 0 31 31" fill="none" xmlns="http://www.w3.org/2000/svg">
<circle cx="15.8687" cy="15.8091" r="15" fill="#FDCB6E"/>
<path d="M11.8066 19.3582H13.3559V17.7733H11.8066V16.42H13.3559V10.2231H16.7036C18.2587 10.2231 19.4102 10.5377 20.1581 11.1669C20.9179 11.7961 21.2978 12.7102 21.2978 13.9092C21.2978 15.1201 20.8823 16.0698 20.0513 16.7583C19.2322 17.435 18.0332 17.7733 16.4543 17.7733H14.9585V19.3582H17.8966V20.5156H14.9585V22.9374H13.3559V20.5156H11.8066V19.3582ZM16.5611 11.5765H14.9585V16.42H16.2228C17.3031 16.42 18.14 16.2419 18.7336 15.8858C19.339 15.5296 19.6417 14.8886 19.6417 13.9626C19.6417 13.1554 19.3924 12.5559 18.8938 12.1641C18.3952 11.7724 17.6177 11.5765 16.5611 11.5765Z" fill="black"/>
</svg>
