<svg width="10" height="10" viewBox="0 0 10 10" fill="none" xmlns="http://www.w3.org/2000/svg">
<path d="M4.62519 0.67342C4.8039 0.285984 5.35454 0.285983 5.53325 0.673419L6.59065 2.96587C6.66349 3.12377 6.81313 3.23249 6.98581 3.25296L9.49281 3.55021C9.91651 3.60045 10.0867 4.12414 9.77342 4.41382L7.91993 6.12788C7.79226 6.24594 7.7351 6.42186 7.76899 6.59241L8.261 9.06857C8.34415 9.48705 7.89867 9.81071 7.52636 9.60231L5.32344 8.36921C5.1717 8.28427 4.98674 8.28427 4.835 8.36921L2.63208 9.60231C2.25977 9.81071 1.81429 9.48705 1.89744 9.06857L2.38945 6.59241C2.42334 6.42186 2.36618 6.24594 2.23851 6.12788L0.385025 4.41382C0.0717748 4.12414 0.241932 3.60045 0.665629 3.55021L3.17263 3.25296C3.34531 3.23249 3.49496 3.12377 3.56779 2.96587L4.62519 0.67342Z" fill="#FDCB6E"/>
</svg>
