<svg width="14" height="15" viewBox="0 0 14 15" fill="none" xmlns="http://www.w3.org/2000/svg">
<path d="M13.1991 11.6645C12.8737 10.8937 12.4014 10.1934 11.8086 9.6029C11.2176 9.01065 10.5175 8.53845 9.74696 8.21238C9.74006 8.20893 9.73316 8.2072 9.72626 8.20375C10.8011 7.4274 11.4998 6.16282 11.4998 4.73606C11.4998 2.37251 9.58479 0.45752 7.22124 0.45752C4.85769 0.45752 2.9427 2.37251 2.9427 4.73606C2.9427 6.16282 3.64141 7.4274 4.71622 8.20547C4.70932 8.20892 4.70242 8.21065 4.69552 8.2141C3.92262 8.54017 3.22908 9.0077 2.63388 9.60463C2.04163 10.1956 1.56943 10.8957 1.24336 11.6663C0.923023 12.4206 0.750259 13.2294 0.734418 14.0488C0.733958 14.0672 0.737187 14.0855 0.743917 14.1027C0.750646 14.1198 0.76074 14.1354 0.773602 14.1486C0.786464 14.1618 0.801835 14.1723 0.818809 14.1794C0.835783 14.1866 0.854017 14.1903 0.872436 14.1903H1.90757C1.98348 14.1903 2.04386 14.1299 2.04558 14.0557C2.08009 12.7238 2.61491 11.4765 3.56033 10.5311C4.53853 9.55287 5.83762 9.0146 7.22124 9.0146C8.60487 9.0146 9.90396 9.55287 10.8822 10.5311C11.8276 11.4765 12.3624 12.7238 12.3969 14.0557C12.3986 14.1316 12.459 14.1903 12.5349 14.1903H13.57C13.5885 14.1903 13.6067 14.1866 13.6237 14.1794C13.6406 14.1723 13.656 14.1618 13.6689 14.1486C13.6817 14.1354 13.6918 14.1198 13.6986 14.1027C13.7053 14.0855 13.7085 14.0672 13.7081 14.0488C13.6908 13.2241 13.52 12.4219 13.1991 11.6645ZM7.22124 7.70344C6.42936 7.70344 5.68407 7.39462 5.12337 6.83393C4.56268 6.27323 4.25386 5.52794 4.25386 4.73606C4.25386 3.94419 4.56268 3.19889 5.12337 2.6382C5.68407 2.0775 6.42936 1.76869 7.22124 1.76869C8.01312 1.76869 8.75841 2.0775 9.31911 2.6382C9.8798 3.19889 10.1886 3.94419 10.1886 4.73606C10.1886 5.52794 9.8798 6.27323 9.31911 6.83393C8.75841 7.39462 8.01312 7.70344 7.22124 7.70344Z" fill="black"/>
</svg>
