<svg width="20" height="26" viewBox="0 0 20 26" fill="none" xmlns="http://www.w3.org/2000/svg">
<path d="M13.5559 10.7343C12.5358 10.7343 11.5575 10.3184 10.8362 9.57817C10.1149 8.83789 9.70971 7.83386 9.70971 6.78695V1.5238H4.58151C3.90146 1.5238 3.24927 1.80105 2.76841 2.29457C2.28755 2.78809 2.0174 3.45744 2.0174 4.15538V21.2606C2.0174 21.9586 2.28755 22.6279 2.76841 23.1214C3.24927 23.615 3.90146 23.8922 4.58151 23.8922H16.12C16.8 23.8922 17.4522 23.615 17.9331 23.1214C18.4139 22.6279 18.6841 21.9586 18.6841 21.2606V10.7343H13.5559ZM10.9918 6.78695C10.9918 7.48489 11.2619 8.15425 11.7428 8.64776C12.2236 9.14128 12.8758 9.41853 13.5559 9.41853H18.1533L10.9918 2.06853V6.78695ZM4.58151 0.208008H10.9918L19.9661 9.41853V21.2606C19.9661 22.3075 19.5609 23.3116 18.8396 24.0519C18.1183 24.7921 17.14 25.208 16.12 25.208H4.58151C3.56144 25.208 2.58316 24.7921 1.86186 24.0519C1.14057 23.3116 0.735352 22.3075 0.735352 21.2606V4.15538C0.735352 3.10847 1.14057 2.10444 1.86186 1.36417C2.58316 0.62389 3.56144 0.208008 4.58151 0.208008ZM7.14561 21.2606V18.6291H4.58151V17.3133H7.14561V14.6817H8.42766V17.3133H10.9918V18.6291H8.42766V21.2606H7.14561Z" fill="#6C5CE7"/>
</svg>
