<svg width="127" height="128" viewBox="0 0 127 128" fill="none" xmlns="http://www.w3.org/2000/svg">
<circle cx="63.4764" cy="63.9863" r="63.286" fill="#FDCB6E"/>
<path d="M69.4155 66.7822C70.4349 65.607 71.2815 64.5161 72.2503 63.5472C73.2192 62.5784 73.2402 61.7992 72.7979 60.5608C68.2909 47.9241 75.6159 34.7104 88.6653 31.8335C100.603 29.2009 112.448 37.2504 114.524 49.4153C116.601 61.5801 108.113 73.1005 95.9904 74.5748C88.8296 75.4468 82.6335 73.3112 77.6462 68.147C76.2351 66.6853 74.9209 66.2304 73.0633 66.5927C71.9723 66.8033 70.8772 67.0897 69.4155 66.7822ZM93.084 40.6244C92.3538 40.664 91.6266 40.747 90.9062 40.8729C87.865 41.5047 85.2871 44.0321 84.887 46.6563C84.6848 47.9915 85.0007 49.0909 86.3613 49.5332C87.7218 49.9755 88.6316 49.1878 89.0992 47.9284C89.3805 46.9866 89.8269 46.1023 90.4176 45.3168C91.6434 43.8678 94.2844 43.7246 95.7545 44.9924C97.2246 46.2603 97.1782 48.1137 95.5523 49.7438C94.5624 50.7379 93.4883 51.6393 92.4858 52.6208C91.875 53.2046 91.3997 53.9153 91.0933 54.7028C90.7869 55.4902 90.6569 56.3353 90.7125 57.1784C90.7546 58.2988 91.239 59.0949 92.3974 59.2845C93.6315 59.4825 94.5035 58.9096 94.6762 57.667C94.9542 55.8642 96.0578 54.6679 97.3636 53.5475C98.2255 52.83 99.0389 52.056 99.7982 51.2307C102.267 48.4633 101.879 44.6428 98.9558 42.3851C97.3678 41.1383 95.5607 40.6833 93.084 40.6244ZM92.8986 65.7629C94.4908 65.6365 95.4259 64.7898 95.367 63.2355C95.3206 61.7908 94.4319 60.8851 92.9576 60.8767C91.4159 60.8767 90.4303 61.7191 90.4303 63.3029C90.4303 64.8867 91.3822 65.6407 92.8986 65.7629Z" fill="#FDFDFC"/>
<path d="M22.4157 52.1911C18.7763 46.5299 16.6197 40.5107 17.9549 33.6574C19.0922 27.8487 22.9843 24.3905 28.8477 24.1294C29.9724 24.0746 30.4399 23.5649 30.9159 22.7393C33.2031 18.763 36.6866 16.1219 40.7051 14.1127C41.517 13.7117 42.374 13.4091 43.2577 13.2113C45.5828 12.689 46.4927 13.5019 46.3116 15.9071L52.0612 14.8541C52.2929 15.9745 52.8615 16.2104 53.7882 15.5154C56.5304 15.7176 59.2641 16.0419 61.6777 17.4572C64.0913 18.8725 64.1545 20.4058 61.783 21.7874C60.2161 22.7056 60.6204 23.1521 61.9136 23.8008C64.066 24.8833 66.0205 26.2397 67.36 28.3079C69.007 30.8352 68.4215 33.2657 65.7341 34.6683C63.312 35.932 60.7131 36.2521 57.9836 36.0162C55.4563 35.7972 53.03 34.921 50.5196 34.5714C54.5043 37.2462 58.944 37.3136 63.4637 36.9555V37.7011C62.5202 37.8106 62.2 38.2066 62.4064 39.2428C62.8529 41.2941 63.1309 43.3792 63.4805 45.4516H62.7476C62.3517 43.3932 61.9543 41.3306 61.5556 39.2638C61.425 38.5815 61.3913 37.8907 60.3467 37.9454C56.9137 38.1265 53.7124 37.1662 50.6207 35.7045C50.0141 39.3186 48.2702 40.4643 44.6856 39.7356C42.7478 39.389 40.9158 38.6006 39.3319 37.4315C38.7254 36.9682 38.3252 36.8039 37.8829 37.6211C36.8509 39.5124 35.006 40.3969 33.1863 41.332C32.5334 41.6311 32.6893 42.2798 32.5966 42.7937C32.0995 45.6453 32.3523 48.5181 32.3818 51.3866C32.3818 52.6081 32.2175 53.8297 30.9033 54.3815C29.707 54.8869 28.9362 54.0782 28.1864 53.32C27.6175 52.6873 26.8681 52.2446 26.0394 52.0517C25.2107 51.8589 24.3427 51.9252 23.553 52.2417L22.4157 52.1911Z" fill="#3C2E40"/>
<path d="M51.0045 93.7179C65.3207 106.617 66.4619 106.617 71.5452 126.189C71.5452 126.189 60.8888 130.423 40.2964 122.641C29.1506 118.429 20.6127 110.425 17.1587 106.617C18.1991 106.457 18.6751 105.581 19.3027 104.903C19.7029 104.806 20.1915 104.819 20.4906 104.591C25.7937 100.509 31.893 97.7462 37.5542 94.2627C38.4472 93.7109 39.3697 92.8221 40.2964 92.8011C41.6401 92.7716 40.4691 94.6966 41.56 95.1683L41.5895 95.8381C41.5348 97.2618 50.5454 92.5595 51.0045 93.7179Z" fill="white"/>
<path d="M90.0131 121.023C87.6459 122.021 85.3376 123.175 82.7976 123.693C82.8187 121.987 83.4421 120.399 83.7875 118.757C84.9964 113.087 86.8203 107.384 83.2062 101.908C83.1079 101.721 83.0424 101.519 83.0124 101.31C82.17 97.7673 84.3477 95.5222 87.9112 96.2172C88.4588 96.3267 89.0148 96.4025 89.5666 96.491C90.8766 97.7251 90.7334 98.7361 89.196 99.7007C88.0292 100.434 86.6686 100.038 85.3586 100.375C86.0242 101.739 87.6206 100.442 88.2524 101.638C88.8506 102.755 88.4378 103.85 87.9239 105.408C89.3729 104.279 89.2718 103.129 89.4318 102.089L89.773 101.701C90.367 101.849 91.0367 102.102 91.5422 101.701C92.6921 100.825 93.147 101.815 93.7789 102.405C94.0611 103.007 94.6213 102.645 95.0425 102.792L95.4637 103.289C94.7202 104.962 93.5053 106.382 91.9676 107.375C91.6904 107.531 91.4513 107.746 91.2677 108.005C91.0841 108.265 90.9606 108.562 90.9061 108.875C90.4259 112.245 90.0005 115.614 89.5666 119.014C89.4979 119.714 89.6543 120.418 90.0131 121.023Z" fill="#F9CEB8"/>
<path d="M41.5979 95.8381C41.5979 95.6148 41.5979 95.3916 41.5684 95.1683C41.7264 93.0646 41.7137 90.9516 41.5305 88.85C41.6779 87.8896 41.8296 86.9334 41.9812 85.9731C42.8237 85.5982 42.2971 84.6546 42.7605 84.1197C44.2937 87.2452 46.4209 89.4102 50.2793 88.8037C50.0181 91.7986 50.0982 94.8398 49.2557 97.7631C48.5102 100.354 46.7284 100.855 44.7107 99.0688C44.1055 98.4861 43.5672 97.8377 43.1059 97.1354C42.7015 96.571 42.4404 95.8802 41.5979 95.8381Z" fill="#F9CEB8"/>
<path d="M42.76 84.1197C42.2966 84.6546 41.6317 92.096 40.8019 92.4708C40.6089 92.3756 40.4632 91.983 40.393 91.7796C40.3228 91.5761 41.5126 85.0803 41.6058 84.8863C42.7094 82.6749 41.3826 82.0431 39.6092 81.3859C37.584 80.6827 35.7193 79.583 34.1238 78.151C32.5284 76.719 31.2343 74.9835 30.3171 73.0458C30.1888 72.689 29.9828 72.3652 29.714 72.0978C29.4452 71.8304 29.1203 71.6262 28.7628 71.4999C28.0896 71.2812 27.4824 70.8964 26.9973 70.3811C26.5121 69.8657 26.1646 69.2364 25.9869 68.5513C25.7089 67.5909 25.5657 67.1192 24.3652 67.8142C23.0679 68.5808 21.9643 67.7468 21.9306 66.0998C21.8609 64.5443 22.2633 63.004 23.0847 61.6812C24.2852 59.8658 24.281 58.5389 22.2423 57.4985L22.7435 57.1068C23.5312 57.5617 24.3105 58.3704 25.195 58.2188C27.8319 57.7976 27.9288 59.453 27.9625 61.2811C27.9909 61.7727 28.0486 62.2621 28.1352 62.7469C29.4578 72.039 33.2362 79.3725 43.257 81.744V82.519C42.5831 82.8981 42.7473 83.5342 42.76 84.1197Z" fill="#443342"/>
<path d="M90.8557 92.8727L90.8347 92.8263C89.9459 92.2113 90.0428 93.058 89.9922 93.4666C89.9417 93.8752 90.3124 94.0605 90.6367 93.8878C91.3949 93.4666 92.2247 93.6646 93.0082 93.5213L92.9576 93.4876C92.9956 94.0268 93.2357 94.368 93.8254 94.3638L93.8001 94.3301V98.2517C94.4951 96.7774 94.6973 94.5239 97.1699 96.453L96.7486 100.623C96.2305 100.716 95.9273 100.918 96.3274 101.466V101.44C95.5397 101.019 95.0638 102.165 94.3056 101.862C92.9787 100.91 94.1413 99.5238 93.7622 98.3401C92.7597 98.9509 92.7807 100.299 91.715 100.745C91.2391 100.943 90.7799 101.141 90.3376 100.779C89.6426 100.21 90.4219 99.9787 90.6536 99.6501C92.0899 97.6156 91.6013 95.9307 89.2635 95.0377C88.5517 94.764 87.7977 94.6165 87.0605 94.3891C87.7513 91.5964 88.4674 88.8205 88.8802 85.9646C89.015 85.0506 88.9855 83.9512 89.9543 83.3236C90.5188 83.5679 90.6367 84.0944 90.8894 84.5872C91.8372 86.449 90.7589 88.2687 90.8894 90.0968C90.662 90.9014 90.3798 91.6932 90.2197 92.5104C90.1228 92.9611 90.4345 93.0959 90.8557 92.8727Z" fill="#F5CBB6"/>
<path d="M41.5979 95.8381C42.4404 95.8802 42.7015 96.571 43.1059 97.1354C43.5672 97.8377 44.1055 98.4862 44.7108 99.0688C46.72 100.855 48.5017 100.354 49.2557 97.7631C50.0982 94.8398 50.0181 91.7986 50.2793 88.8037C50.4899 87.2704 50.6991 85.7372 50.9069 84.2039H51.5935C51.4419 86.0194 51.4714 87.877 51.088 89.6419C50.6373 91.748 51.4461 93.058 52.8782 94.4059C55.9953 97.3545 58.8891 100.518 62.0651 103.382C66.9218 107.763 68.8762 113.55 70.2747 119.62C70.5274 120.72 71.0624 121.853 70.6411 123.049C69.9588 122.653 69.8829 121.979 69.7481 121.288C68.257 113.677 65.2916 106.925 59.1418 101.782C56.2733 99.3806 53.7923 96.512 50.9617 93.6772C50.3593 96.0445 50.7047 98.4623 49.0241 100.185C47.6298 101.617 45.9702 101.297 43.2954 99.1784C42.8363 98.0242 41.5347 97.2618 41.5979 95.8381Z" fill="#4A3B4A"/>
<path d="M51.5938 84.2039H50.9072C50.9072 83.134 50.208 83.2309 49.4708 83.2688C47.3647 83.3783 45.2586 83.2688 43.2578 82.5233V81.7566C45.2333 82.0094 47.1836 82.6749 49.2181 82.1779C59.0957 81.8704 66.6356 72.6751 65.3509 62.2625C64.6601 56.6392 63.6281 51.058 62.7477 45.4558H63.4806C64.1378 47.5619 64.1209 49.9249 65.5868 51.7741C63.7881 52.6671 65.4435 53.7033 64.9802 55.1144C66.4376 53.7412 65.532 52.7345 65.5783 51.7446C66.842 52.4944 67.2632 53.5222 66.3576 54.8237C65.452 56.1253 65.5699 57.389 65.8563 58.7832C66.6554 62.4166 66.5483 66.1907 65.5446 69.7729C63.746 76.0912 59.7697 80.3371 53.544 82.4474C52.6258 82.7844 51.5643 82.8644 51.5938 84.2039Z" fill="#4E3B46"/>
<path d="M87.0648 94.3849C87.8019 94.5955 88.5559 94.7598 89.2677 95.0336C91.6055 95.9265 92.0941 97.6114 90.6578 99.6459C90.4261 99.9745 89.6468 100.206 90.3419 100.775C90.7841 101.137 91.2433 100.939 91.7192 100.741C92.7849 100.295 92.7639 98.9467 93.7664 98.3359C94.1455 99.5196 92.9829 100.905 94.3098 101.857L93.7917 102.388C93.1598 101.798 92.7049 100.809 91.555 101.685C91.0537 102.068 90.3798 101.815 89.7858 101.685C89.6089 101.55 89.4152 101.491 89.2972 101.731C89.2635 101.803 89.3899 101.954 89.4446 102.072C89.2846 103.113 89.3857 104.263 87.9367 105.391C88.4506 103.833 88.8634 102.738 88.2652 101.621C87.6334 100.442 86.037 101.739 85.3714 100.358C86.6772 100.021 88.042 100.417 89.2088 99.6838C90.7462 98.7192 90.8937 97.7083 89.5794 96.4741C87.8609 95.2105 84.946 94.8693 83.7666 95.7581C82.0817 97.0007 81.0581 100.24 81.7279 102.207C81.9332 102.802 82.1927 103.378 82.5029 103.926C83.556 105.8 83.5981 107.649 82.9536 109.743C81.4077 114.734 80.0935 119.793 78.6867 124.827L77.6462 125.096C79.1163 119.856 80.5274 114.595 82.0986 109.38C82.6411 107.644 82.4761 105.764 81.6394 104.149C79.7608 100.13 80.4726 97.3798 83.8972 94.5997C84.4237 94.1785 84.8702 93.6393 85.3546 93.1591C84.7607 95.1557 86.3992 94.0816 87.0648 94.3849Z" fill="#4E3B46"/>
<path d="M53.788 15.5153C52.8614 16.2104 52.2927 15.9745 52.061 14.854C55.6257 14.0539 59.3211 14.0324 62.8948 14.7908C63.7161 14.9638 64.5209 15.2076 65.3 15.5196C69.8787 17.3603 70.3041 19.677 66.5637 22.9246C68.7582 23.9019 70.8728 24.9423 72.5577 26.6398C75.7337 29.8453 75.4093 32.7138 71.5467 34.9884C69.0838 36.4645 66.3306 37.3899 63.4761 37.7011C63.4761 37.4526 63.4761 37.204 63.4761 36.9555C66.3531 36.3405 69.1753 35.5528 71.6647 33.9185C74.0699 32.3389 74.3984 30.5487 72.8062 28.2615C71.5425 26.4713 69.7692 25.3888 67.8568 24.4916C66.6816 23.9398 65.4432 23.5354 63.9521 22.9541C64.7693 22.6129 65.2874 22.4276 65.7802 22.1833C66.9933 21.5809 68.2696 20.9196 68.3075 19.3822C68.3455 17.9837 67.0734 17.4066 66.0372 16.8548C62.1451 14.8751 58.0213 14.7234 53.788 15.5153Z" fill="#4E3B46"/>
<path d="M41.531 88.8374C41.7156 90.9389 41.7297 93.0519 41.5731 95.1557C40.4737 94.6839 41.6447 92.7589 40.3095 92.7884C39.3828 92.8095 38.4603 93.6983 37.5673 94.2501C31.885 97.7462 25.7942 100.509 20.5121 104.591C20.213 104.819 19.7244 104.806 19.3242 104.903C20.0698 103.386 21.5272 102.637 22.8541 101.836C27.5759 98.9762 32.3484 96.2003 37.1208 93.4118C39.0205 92.3124 41.2025 91.4911 41.531 88.8374Z" fill="#4A3B4A"/>
<path d="M87.0647 94.3849C86.4203 94.0816 84.7817 95.1641 85.3546 93.1591C85.7674 91.2299 86.1886 89.3021 86.6183 87.3757C86.596 87.3414 86.5863 87.3003 86.5909 87.2596C86.5955 87.2189 86.6141 87.181 86.6435 87.1525V87.203C87.0388 86.2087 87.4888 85.237 87.9914 84.2924C88.3874 83.6269 88.7117 82.4643 89.9333 83.3404C88.9645 83.9681 88.9939 85.0675 88.8591 85.9815C88.4506 88.8374 87.7345 91.5922 87.0647 94.3849Z" fill="#FA9C92"/>
<path d="M89.9376 83.3194C88.716 82.4432 88.3917 83.6058 87.9957 84.2713C87.4931 85.2159 87.0431 86.1876 86.6478 87.182C86.59 86.131 86.7926 85.082 87.2375 84.1281C87.6588 83.113 88.2906 82.1947 89.5037 82.2495C90.7926 82.3042 91.4203 83.2562 91.7657 84.4103C92.347 86.3564 92.1363 88.2771 91.5382 90.1811L90.8811 90.101C90.7421 88.2729 91.8204 86.4533 90.8811 84.5915C90.6199 84.0902 90.502 83.5637 89.9376 83.3194Z" fill="#443342"/>
<path d="M22.4153 52.1911L23.5694 52.2501C21.9603 53.6486 21.4633 55.2366 22.727 57.1278L22.2215 57.5196C20.5113 55.6746 21.0631 53.9139 22.4153 52.1911Z" fill="#443342"/>
<path d="M97.1447 96.4194C94.6679 94.4902 94.4657 96.7437 93.7749 98.218V94.3133C94.5584 94.6587 95.1986 95.2821 96.2054 95.1852C96.8919 95.1136 97.5153 95.5011 97.1447 96.4194Z" fill="#3E3143"/>
<path d="M96.7275 100.632L97.1488 96.4615C98.3282 97.6409 98.1471 99.4479 96.7275 100.632Z" fill="#3E3143"/>
<path d="M93.7705 102.388L94.2886 101.857C95.0552 102.165 95.5228 101.015 96.3105 101.436C96.5464 101.916 96.0662 102.043 95.8893 102.308L95.0468 102.771C94.6466 102.628 94.0527 102.99 93.7705 102.388Z" fill="#3E3143"/>
<path d="M90.8808 90.101L91.5379 90.1811C91.3062 91.0783 91.0703 91.9755 90.8387 92.8727C90.4174 93.0959 90.1226 92.9611 90.211 92.5146C90.3711 91.6975 90.6533 90.9056 90.8808 90.101Z" fill="#3E3143"/>
<path d="M92.962 93.5045C92.1785 93.6477 91.3487 93.4287 90.5905 93.871C90.2662 94.0605 89.8745 93.9131 89.9461 93.4498C90.0177 92.9864 89.9124 92.1861 90.7885 92.8095C91.4582 93.3108 92.4692 92.5989 92.962 93.5045Z" fill="#3E3143"/>
<path d="M95.0679 102.776L95.9103 102.312C95.9103 102.691 95.9566 103.075 95.5228 103.273L95.0679 102.776Z" fill="#4E3B46"/>
<path d="M93.804 94.3469C93.2143 94.3469 92.9616 94.01 92.9363 93.4708C93.6608 93.3234 94.023 93.5424 93.804 94.3469Z" fill="#3E3143"/>
<path d="M96.2936 101.474C95.8977 100.922 96.201 100.72 96.7148 100.632C97.174 101.192 96.8791 101.407 96.2936 101.474Z" fill="#3E3143"/>
<path d="M86.6434 87.1525C86.623 87.1642 86.6052 87.1799 86.591 87.1986C86.5768 87.2173 86.5664 87.2387 86.5606 87.2614C86.5547 87.2841 86.5534 87.3078 86.5568 87.3311C86.5601 87.3543 86.5681 87.3767 86.5802 87.3968C86.6855 87.3083 86.7066 87.2241 86.6434 87.1525Z" fill="#443342"/>
<path d="M78.6658 124.827C80.0727 119.793 81.3869 114.717 82.9327 109.743C83.5772 107.636 83.5351 105.8 82.482 103.926C82.1718 103.377 81.9124 102.802 81.707 102.207C81.0372 100.24 82.0777 97.0006 83.7457 95.758C84.942 94.8692 87.84 95.2273 89.5586 96.4741C89.0068 96.3856 88.4507 96.3098 87.9032 96.2003C84.3396 95.5053 82.1788 97.7504 83.0044 101.293C83.0343 101.502 83.0999 101.704 83.1981 101.891C86.8122 107.401 84.9883 113.087 83.7794 118.74C83.434 120.383 82.8106 121.971 82.7895 123.677C81.494 124.301 80.0977 124.691 78.6658 124.827Z" fill="#FA9C92"/>
<path d="M93.0837 40.6244C95.5605 40.6834 97.3675 41.1383 98.9303 42.3514C101.879 44.6302 102.245 48.4507 99.7727 51.1971C99.0134 52.0224 98.2 52.7963 97.338 53.5138C96.0323 54.6342 94.9287 55.8305 94.6506 57.6333C94.4611 58.8759 93.606 59.4488 92.3718 59.2508C91.2345 59.0739 90.7501 58.2778 90.687 57.1447C90.6384 56.3038 90.7742 55.4625 91.0848 54.6796C91.3955 53.8967 91.8736 53.1911 92.4856 52.6124C93.4881 51.6309 94.5622 50.7295 95.5521 49.7354C97.178 48.1053 97.237 46.2604 95.7543 44.9841C94.2716 43.7078 91.6431 43.8594 90.4174 45.3084C89.8266 46.0939 89.3802 46.9782 89.099 47.92C88.6314 49.1836 87.7763 49.984 86.361 49.5248C84.9457 49.0657 84.6761 47.9832 84.8867 46.6479C85.2869 44.0237 87.8648 41.4963 90.906 40.8645C91.6265 40.7414 92.3537 40.6613 93.0837 40.6244Z" fill="#3E3143"/>
<path d="M92.8986 65.7629C91.3822 65.6407 90.3966 64.9204 90.4219 63.2945C90.4471 61.6686 91.4159 60.8599 92.9492 60.8683C94.4235 60.8683 95.3122 61.7823 95.3586 63.2271C95.4091 64.7899 94.4909 65.6365 92.8986 65.7629Z" fill="#3E3143"/>
<path d="M62.7436 45.4516C63.624 51.0538 64.656 56.635 65.3468 62.2583C66.6315 72.6709 59.0916 81.8661 49.2098 82.1736C47.4575 81.1248 45.3303 81.1459 43.5401 80.0886C38.953 77.3675 36.4341 73.2985 35.2547 68.2312C33.1907 59.3856 33.0938 50.3588 33.1865 41.332C35.0062 40.4138 36.8511 39.5123 37.8789 37.6126C38.3001 36.7955 38.7214 36.9597 39.3279 37.4231C40.9118 38.5922 42.7438 39.3806 44.6816 39.7272C48.2662 40.4559 50.0101 39.3059 50.6166 35.6961C53.7084 37.1577 56.9097 38.1181 60.3426 37.937C61.3873 37.8822 61.421 38.573 61.5516 39.2554C61.9475 41.3194 62.3449 43.3848 62.7436 45.4516ZM49.1845 62.3299C49.1077 62.2622 49.0089 62.2247 48.9065 62.2246H47.7397C47.1668 60.7545 45.9074 61.5085 44.9386 61.3822C44.2718 61.2724 43.5876 61.3999 43.0051 61.7423C42.4225 62.0848 41.9784 62.6206 41.7499 63.2566C41.1307 64.6972 41.7794 65.8597 42.8914 66.7654C45.6841 69.0526 48.8854 69.756 52.3352 68.7662C54.3023 68.2059 55.8651 67.0012 56.0588 64.714C56.1641 63.5009 55.6587 62.65 54.336 62.5574C52.6006 62.4394 50.861 62.3762 49.1255 62.2878L49.1845 62.3299ZM42.5924 49.1162C42.4576 47.9283 42.7819 46.214 41.3034 46.1424C39.825 46.0708 39.9092 47.7978 39.8881 48.9266C39.8629 50.2366 39.3995 52.2964 41.215 52.3259C42.8915 52.3554 42.2807 50.2703 42.5924 49.1162ZM59.1927 48.695C58.8979 48.101 59.2938 46.8458 58.2239 46.77C57.154 46.6942 57.1245 47.7767 56.9813 48.6992C56.8255 49.7143 56.3158 50.6705 57.2635 51.534C57.3752 51.672 57.5324 51.7656 57.7069 51.798C57.8814 51.8304 58.0617 51.7996 58.2155 51.7109C59.2096 50.9864 58.961 49.8365 59.1927 48.6908V48.695ZM51.7371 53.7496C56.0715 54.4362 52.8449 56.2306 52.7944 57.7891C54.1465 56.8582 55.1911 55.9737 54.7657 54.4994C54.4624 53.4548 53.4262 53.1978 51.7371 53.737V53.7496ZM42.7398 41.172C40.1746 40.5949 39.4922 41.0919 38.9109 44.0363C40.1072 42.7263 40.7853 41.0582 42.7398 41.172ZM59.0916 42.4356C58.5735 40.4011 57.828 40.0473 56.2736 41.0961C57.326 41.2529 58.3074 41.7208 59.0916 42.4398V42.4356ZM51.4001 53.0757L51.4886 52.924L51.5602 53.0841L51.4001 53.0757Z" fill="#FCD1BA"/>
<path d="M33.1863 41.332C33.0937 50.3588 33.1863 59.3687 35.2545 68.2312C36.434 73.2859 38.9529 77.3675 43.54 80.0802C45.3301 81.1375 47.4573 81.1164 49.2096 82.1652C47.1793 82.6749 45.2291 82.0094 43.2535 81.744C33.2327 79.3725 29.4543 72.0559 28.1317 62.7469C28.0451 62.2622 27.9874 61.7727 27.959 61.2811C27.9253 59.453 27.8284 57.806 25.1916 58.2188C24.307 58.3536 23.5067 57.5617 22.74 57.1068C21.4764 55.2155 21.9608 53.6275 23.5825 52.229C24.3723 51.9125 25.2402 51.8462 26.0689 52.0391C26.8976 52.2319 27.6471 52.6747 28.2159 53.3074C28.9657 54.0656 29.7365 54.8743 30.9328 54.3688C32.247 53.817 32.4239 52.5955 32.4113 51.3739C32.3818 48.5054 32.1291 45.6327 32.6261 42.781C32.6893 42.2798 32.5334 41.6311 33.1863 41.332Z" fill="#FA9C92"/>
<path d="M53.7881 15.5154C58.0004 14.7235 62.1325 14.8751 66.0288 16.8759C67.065 17.4067 68.3371 17.9837 68.2992 19.4032C68.2571 20.9281 66.9808 21.602 65.7719 22.2044C65.2791 22.4487 64.761 22.6256 63.9438 22.9752C65.4349 23.5565 66.6733 23.9609 67.8485 24.5127C69.7609 25.4099 71.5553 26.4924 72.7979 28.2826C74.3901 30.5656 74.0615 32.36 71.6564 33.9396C69.1669 35.5739 66.3448 36.3616 63.4678 36.9766C58.9523 37.3346 54.5084 37.2672 50.5237 34.5925C53.051 34.9421 55.4435 35.8182 57.9877 36.0373C60.7172 36.2732 63.3162 35.9572 65.7382 34.6894C68.4256 33.2867 69.0111 30.8731 67.3641 28.3289C66.0246 26.2607 64.0702 24.9044 61.9177 23.8219C60.6246 23.1732 60.2328 22.7267 61.7871 21.8084C64.1586 20.41 64.1123 18.902 61.6818 17.4783C59.2514 16.0545 56.5429 15.7176 53.7881 15.5154Z" fill="#84777A"/>
<path d="M43.2578 82.519C45.267 83.2815 47.3604 83.3615 49.4708 83.2646C50.2079 83.2267 50.9198 83.1298 50.9071 84.1997C50.6965 85.733 50.4873 87.2662 50.2795 88.7995C46.4211 89.406 44.294 87.2409 42.7607 84.1155C42.7481 83.5342 42.5838 82.8981 43.2578 82.519Z" fill="#FA9C92"/>
<path d="M65.5825 51.7699C65.5361 52.7387 66.4249 53.7454 64.9843 55.1397C65.4477 53.7286 63.7923 52.6924 65.5909 51.7994L65.5825 51.7699Z" fill="#FA9C92"/>
<path d="M89.4236 102.055C89.3688 101.937 89.2424 101.786 89.2761 101.714C89.3941 101.474 89.5878 101.533 89.7648 101.668L89.4236 102.055Z" fill="#F9CEB8"/>
<path d="M49.1252 62.3004C50.8607 62.3889 52.6003 62.4521 54.3358 62.57C55.6584 62.6627 56.1639 63.5135 56.0585 64.7267C55.8648 67.0139 54.3021 68.2186 52.3349 68.7788C48.8851 69.7687 45.6839 69.0652 42.8912 66.778C41.7791 65.8724 41.1305 64.7098 41.7497 63.2692C41.9781 62.6333 42.4222 62.0974 43.0048 61.755C43.5873 61.4125 44.2715 61.2851 44.9383 61.3948C45.9071 61.5127 47.1666 60.7588 47.7394 62.2372L44.8709 62.3847C49.5043 64.4318 52.5961 64.6845 54.2894 63.2271C52.5582 62.8354 50.6122 63.7663 49.1252 62.3004ZM48.9357 68.2944C48.0048 65.5649 46.0967 64.6298 44.0537 63.8589C43.6325 63.6905 43.0849 63.4377 42.6932 63.8589C42.2341 64.3686 42.5584 64.9204 42.8785 65.3711C44.2938 67.3256 46.3789 67.8774 48.9357 68.2818V68.2944Z" fill="#3E3143"/>
<path d="M42.5922 49.1162C42.2805 50.2704 42.8912 52.3554 41.2148 52.3259C39.3993 52.2922 39.8627 50.2198 39.8879 48.9267C39.8879 47.7978 39.7911 46.0708 41.3032 46.1424C42.8154 46.214 42.4574 47.9284 42.5922 49.1162Z" fill="#4A3B4A"/>
<path d="M59.1924 48.6908C58.9607 49.8365 59.1924 50.9864 58.2152 51.7067C58.0614 51.7954 57.8811 51.8263 57.7066 51.7938C57.5321 51.7614 57.3749 51.6678 57.2632 51.5298C56.3155 50.6663 56.842 49.7101 56.981 48.695C57.1242 47.7725 57.1368 46.69 58.2236 46.7658C59.3104 46.8416 58.8976 48.0969 59.1924 48.6908Z" fill="#4A3B4A"/>
<path d="M49.1252 62.3004C50.6121 63.7789 52.5581 62.848 54.2894 63.2397C52.6045 64.6761 49.5001 64.4234 44.8708 62.3973L47.7394 62.2499H48.9062H49.0704L49.1842 62.3636L49.1252 62.3004Z" fill="#DBDBDB"/>
<path d="M51.7368 53.737C53.4217 53.1978 54.4621 53.4337 54.7654 54.4868C55.1866 55.961 54.1462 56.8456 52.7941 57.7765C52.8446 56.218 56.0712 54.4236 51.7368 53.737Z" fill="#4E3B46"/>
<path d="M42.7395 41.172C40.7851 41.0582 40.1069 42.7263 38.9106 44.0363C39.4919 41.0919 40.1743 40.5949 42.7395 41.172Z" fill="#443342"/>
<path d="M59.0912 42.4398C58.3064 41.7224 57.3251 41.2559 56.2732 41.1003C57.8486 40.0515 58.5731 40.3969 59.0912 42.4398Z" fill="#4A3B4A"/>
<path d="M51.3997 53.0757L51.5597 53.0841L51.4881 52.924L51.3997 53.0757Z" fill="#4E3B46"/>
<path d="M49.1843 62.3215L49.0705 62.2078H48.9062C49.0097 62.2102 49.1087 62.2507 49.1843 62.3215Z" fill="#3E3143"/>
<path d="M48.9356 68.2818C46.3788 67.8606 44.3022 67.3256 42.8784 65.3543C42.5583 64.9036 42.234 64.3518 42.6931 63.8421C43.0848 63.4209 43.6114 63.6778 44.0536 63.8421C46.0966 64.6172 48.0047 65.5523 48.9356 68.2818Z" fill="#CE837E"/>
</svg>
